<svg version="1.2" baseProfile="tiny-ps" xmlns="http://www.w3.org/2000/svg" viewBox="0 0 426 394" width="426" height="394">
	<title>task-done-illustration-svg</title>
	<style>
		tspan { white-space:pre }
		.shp0 { fill: #ebebeb } 
		.shp1 { fill: #fafafa } 
		.shp2 { fill: #f5f5f5 } 
		.shp3 { fill: #e0e0e0 } 
		.shp4 { fill: #f0f0f0 } 
		.shp5 { fill: #e6e6e6 } 
		.shp6 { fill: #407bff } 
		.shp7 { opacity: 0.8;fill: #ffffff } 
		.shp8 { opacity: 0.2;fill: #000000 } 
		.shp9 { opacity: 0.102;fill: #000000 } 
		.shp10 { fill: #263238 } 
		.shp11 { opacity: 0.6;fill: #ffffff } 
		.shp12 { fill: #ffffff } 
		.shp13 { opacity: 0.102;fill: #ffffff } 
		.shp14 { opacity: 0.2;fill: #ffffff } 
		.shp15 { fill: #e4897b } 
		.shp16 { opacity: 0.302;fill: #ffffff } 
		.shp17 { opacity: 0.4;fill: #ffffff } 
		.shp18 { opacity: 0.302;fill: #000000 } 
		.shp19 { opacity: 0.702;fill: #ffffff } 
		.shp20 { opacity: 0.6;fill: #407bff } 
		.shp21 { fill: #de5753 } 
	</style>
	<g id="freepik--background-complete--inject-2">
		<path id="Layer" class="shp0" d="M-41 334.4L459 334.4L459 334.65L-41 334.65L-41 334.4Z" />
		<path id="Layer" class="shp0" d="M375.78 350.49L408.9 350.49L408.9 350.74L375.78 350.74L375.78 350.49Z" />
		<path id="Layer" class="shp0" d="M281.53 353.21L290.22 353.21L290.22 353.46L281.53 353.46L281.53 353.21Z" />
		<path id="Layer" class="shp0" d="M355.59 341.21L374.78 341.21L374.78 341.46L355.59 341.46L355.59 341.21Z" />
		<path id="Layer" class="shp0" d="M11.46 342.89L54.65 342.89L54.65 343.14L11.46 343.14L11.46 342.89Z" />
		<path id="Layer" class="shp0" d="M63.56 342.89L69.89 342.89L69.89 343.14L63.56 343.14L63.56 342.89Z" />
		<path id="Layer" class="shp0" d="M90.47 347.11L184.15 347.11L184.15 347.36L90.47 347.36L90.47 347.11Z" />
		<path id="Layer" fill-rule="evenodd" class="shp0" d="M2.91 289.8C2.16 289.8 1.42 289.65 0.73 289.36C0.04 289.07 -0.59 288.65 -1.12 288.12C-1.65 287.59 -2.07 286.96 -2.36 286.27C-2.64 285.58 -2.79 284.84 -2.79 284.09L-2.79 12.66C-2.78 11.92 -2.63 11.18 -2.34 10.49C-2.05 9.81 -1.63 9.18 -1.1 8.66C-0.58 8.13 0.05 7.72 0.74 7.43C1.43 7.15 2.17 7 2.91 7L196 7C196.75 7 197.49 7.15 198.19 7.43C198.88 7.72 199.51 8.14 200.04 8.67C200.57 9.2 200.99 9.83 201.28 10.52C201.56 11.22 201.71 11.96 201.71 12.71L201.71 284.09C201.71 284.84 201.56 285.58 201.28 286.28C200.99 286.97 200.57 287.6 200.04 288.13C199.51 288.66 198.88 289.08 198.19 289.37C197.49 289.65 196.75 289.8 196 289.8L2.91 289.8ZM2.91 7.2C2.19 7.2 1.48 7.34 0.82 7.62C0.16 7.89 -0.44 8.3 -0.94 8.8C-1.45 9.31 -1.85 9.91 -2.13 10.57C-2.4 11.23 -2.54 11.94 -2.54 12.66L-2.54 284.09C-2.54 284.81 -2.4 285.52 -2.13 286.18C-1.85 286.84 -1.45 287.44 -0.94 287.95C-0.44 288.45 0.16 288.86 0.82 289.13C1.48 289.41 2.19 289.55 2.91 289.55L196 289.55C196.72 289.55 197.43 289.41 198.09 289.13C198.75 288.86 199.35 288.45 199.86 287.95C200.36 287.44 200.77 286.84 201.04 286.18C201.32 285.52 201.46 284.81 201.46 284.09L201.46 12.66C201.46 11.94 201.32 11.23 201.04 10.57C200.77 9.91 200.36 9.31 199.86 8.8C199.35 8.3 198.75 7.89 198.09 7.62C197.43 7.34 196.72 7.2 196 7.2L2.91 7.2Z" />
		<path id="Layer" fill-rule="evenodd" class="shp0" d="M219.21 289.8C218.46 289.8 217.72 289.65 217.03 289.36C216.33 289.08 215.71 288.65 215.18 288.12C214.65 287.59 214.22 286.97 213.94 286.27C213.65 285.58 213.5 284.84 213.5 284.09L213.5 12.66C213.51 11.91 213.66 11.18 213.95 10.49C214.24 9.81 214.66 9.18 215.19 8.66C215.72 8.13 216.35 7.72 217.04 7.43C217.73 7.15 218.46 7 219.21 7L412.31 7C413.05 7 413.79 7.15 414.48 7.44C415.16 7.72 415.79 8.14 416.32 8.66C416.84 9.19 417.26 9.81 417.55 10.49C417.84 11.18 417.99 11.92 418 12.66L418 284.09C418 284.84 417.85 285.58 417.57 286.27C417.28 286.96 416.86 287.59 416.33 288.12C415.81 288.65 415.18 289.07 414.49 289.36C413.8 289.65 413.06 289.8 412.31 289.8L219.21 289.8ZM219.21 7.2C218.49 7.2 217.78 7.34 217.12 7.62C216.46 7.89 215.86 8.3 215.35 8.8C214.85 9.31 214.44 9.91 214.17 10.57C213.89 11.23 213.75 11.94 213.75 12.66L213.75 284.09C213.75 284.81 213.89 285.52 214.17 286.18C214.44 286.84 214.85 287.44 215.35 287.95C215.86 288.45 216.46 288.86 217.12 289.13C217.78 289.41 218.49 289.55 219.21 289.55L412.31 289.55C413.03 289.55 413.74 289.41 414.4 289.13C415.06 288.86 415.66 288.45 416.17 287.95C416.67 287.44 417.08 286.84 417.35 286.18C417.63 285.52 417.77 284.81 417.77 284.09L417.77 12.66C417.77 11.94 417.63 11.23 417.35 10.57C417.08 9.91 416.67 9.31 416.17 8.8C415.66 8.3 415.06 7.89 414.4 7.62C413.74 7.34 413.03 7.2 412.31 7.2L219.21 7.2Z" />
		<path id="Layer" class="shp1" d="M52.24 17.75L123.49 17.75L123.49 259.46L52.24 259.46L52.24 17.75Z" />
		<path id="Layer" class="shp2" d="M112.88 17.75L108.72 17.75L83.87 259.46L88.03 259.46L112.88 17.75L112.88 17.75Z" />
		<path id="Layer" class="shp3" d="M51.78 18.68L122.23 18.68L122.23 20.81L51.78 20.81L51.78 18.68Z" />
		<path id="Layer" class="shp0" d="M51.78 257.34L122.23 257.34L122.23 261.9L51.78 261.9L51.78 257.34Z" />
		<path id="Layer" class="shp0" d="M54.49 261.7L121.06 261.7L121.06 261.9L54.49 261.9L54.49 261.7Z" />
		<path id="Layer" class="shp0" d="M54.49 18.68L121.06 18.68L121.06 261.7L125.05 261.7L125.05 15.69L50.5 15.69L50.5 261.7L54.49 261.7L54.49 18.68L54.49 18.68Z" />
		<path id="Layer" class="shp1" d="M131.53 17.75L202.78 17.75L202.78 259.46L131.53 259.46L131.53 17.75Z" />
		<path id="Layer" class="shp2" d="M183.01 17.75L160.3 17.75L135.45 259.46L158.16 259.46L183.01 17.75L183.01 17.75Z" />
		<path id="Layer" class="shp3" d="M131.07 18.68L203.52 18.68L203.52 20.81L131.07 20.81L131.07 18.68Z" />
		<path id="Layer" class="shp0" d="M131.07 257.34L203.52 257.34L203.52 261.9L131.07 261.9L131.07 257.34Z" />
		<path id="Layer" class="shp0" d="M133.78 261.7L200.35 261.7L200.35 261.9L133.78 261.9L133.78 261.7Z" />
		<path id="Layer" class="shp0" d="M133.78 18.68L200.35 18.68L200.35 261.7L204.33 261.7L204.33 15.69L129.79 15.69L129.79 261.7L133.78 261.7L133.78 18.68L133.78 18.68Z" />
		<path id="Layer" class="shp1" d="M210.81 17.75L280.06 17.75L280.06 259.46L210.81 259.46L210.81 17.75Z" />
		<path id="Layer" class="shp2" d="M250.05 17.75L245.89 17.75L221.04 259.46L225.2 259.46L250.05 17.75L250.05 17.75Z" />
		<path id="Layer" class="shp3" d="M210.36 18.68L280.81 18.68L280.81 20.81L210.36 20.81L210.36 18.68Z" />
		<path id="Layer" class="shp0" d="M210.36 257.34L280.81 257.34L280.81 261.9L210.36 261.9L210.36 257.34Z" />
		<path id="Layer" class="shp0" d="M213.07 261.7L279.64 261.7L279.64 261.9L213.07 261.9L213.07 261.7Z" />
		<path id="Layer" class="shp0" d="M213.07 18.68L279.63 18.68L279.63 261.7L283.62 261.7L283.62 15.69L209.08 15.69L209.08 261.7L213.07 261.7L213.07 18.68L213.07 18.68Z" />
		<path id="Layer" class="shp1" d="M290.1 17.75L361.35 17.75L361.35 259.46L290.1 259.46L290.1 17.75Z" />
		<path id="Layer" class="shp2" d="M354.38 17.75L331.67 17.75L306.81 259.46L329.53 259.46L354.38 17.75L354.38 17.75Z" />
		<path id="Layer" class="shp3" d="M289.64 18.68L360.09 18.68L360.09 20.81L289.64 20.81L289.64 18.68Z" />
		<path id="Layer" class="shp0" d="M289.64 257.34L360.09 257.34L360.09 261.9L289.64 261.9L289.64 257.34Z" />
		<path id="Layer" class="shp0" d="M292.35 18.68L358.92 18.68L358.92 261.7L362.91 261.7L362.91 15.69L288.37 15.69L288.37 261.7L292.35 261.7L292.35 18.68L292.35 18.68Z" />
		<path id="Layer" class="shp0" d="M292.35 261.7L358.92 261.7L358.92 261.9L292.35 261.9L292.35 261.7Z" />
		<path id="Layer" class="shp0" d="M75.51 203.86L106.44 203.86L106.44 257.35L75.51 257.35L75.51 203.86Z" />
		<path id="Layer" class="shp0" d="M100.5 196.38L100.5 209.8L98.07 209.8L83.89 209.8L81.45 209.8L81.45 196.38L100.5 196.38L100.5 196.38Z" />
		<path id="Layer" class="shp1" d="M104.46 209.8L100.5 209.8L100.5 205.84L104.46 205.84L104.46 209.8Z" />
		<path id="Layer" class="shp1" d="M96.8 209.8L92.84 209.8L92.84 205.84L96.8 205.84L96.8 209.8Z" />
		<path id="Layer" class="shp1" d="M89.13 209.8L85.17 209.8L85.17 205.84L89.13 205.84L89.13 209.8Z" />
		<path id="Layer" class="shp4" d="M81.46 209.8L77.5 209.8L77.5 205.84L81.46 205.84L81.46 209.8Z" />
		<path id="Layer" class="shp4" d="M104.46 216.99L100.5 216.99L100.5 213.03L104.46 213.03L104.46 216.99Z" />
		<path id="Layer" class="shp4" d="M96.8 216.99L92.84 216.99L92.84 213.03L96.8 213.03L96.8 216.99Z" />
		<path id="Layer" class="shp1" d="M89.13 216.99L85.17 216.99L85.17 213.03L89.13 213.03L89.13 216.99Z" />
		<path id="Layer" class="shp1" d="M81.46 216.99L77.5 216.99L77.5 213.03L81.46 213.03L81.46 216.99Z" />
		<path id="Layer" class="shp4" d="M104.46 224.19L100.5 224.19L100.5 220.23L104.46 220.23L104.46 224.19Z" />
		<path id="Layer" class="shp1" d="M96.8 224.19L92.84 224.19L92.84 220.23L96.8 220.23L96.8 224.19Z" />
		<path id="Layer" class="shp1" d="M89.13 224.19L85.17 224.19L85.17 220.23L89.13 220.23L89.13 224.19Z" />
		<path id="Layer" class="shp1" d="M96.8 203.58L92.84 203.58L92.84 199.62L96.8 199.62L96.8 203.58Z" />
		<path id="Layer" class="shp4" d="M89.13 203.58L85.17 203.58L85.17 199.62L89.13 199.62L89.13 203.58Z" />
		<path id="Layer" class="shp4" d="M81.46 224.19L77.5 224.19L77.5 220.23L81.46 220.23L81.46 224.19Z" />
		<path id="Layer" class="shp1" d="M104.46 231.39L100.5 231.39L100.5 227.43L104.46 227.43L104.46 231.39Z" />
		<path id="Layer" class="shp4" d="M96.8 231.39L92.84 231.39L92.84 227.43L96.8 227.43L96.8 231.39Z" />
		<path id="Layer" class="shp4" d="M89.13 231.39L85.17 231.39L85.17 227.43L89.13 227.43L89.13 231.39Z" />
		<path id="Layer" class="shp1" d="M81.46 231.39L77.5 231.39L77.5 227.43L81.46 227.43L81.46 231.39Z" />
		<path id="Layer" class="shp4" d="M104.46 238.59L100.5 238.59L100.5 234.63L104.46 234.63L104.46 238.59Z" />
		<path id="Layer" class="shp1" d="M96.8 238.59L92.84 238.59L92.84 234.63L96.8 234.63L96.8 238.59Z" />
		<path id="Layer" class="shp1" d="M89.13 238.59L85.17 238.59L85.17 234.63L89.13 234.63L89.13 238.59Z" />
		<path id="Layer" class="shp4" d="M81.46 238.59L77.5 238.59L77.5 234.63L81.46 234.63L81.46 238.59Z" />
		<path id="Layer" class="shp4" d="M104.46 245.78L100.5 245.78L100.5 241.82L104.46 241.82L104.46 245.78Z" />
		<path id="Layer" class="shp1" d="M96.8 245.78L92.84 245.78L92.84 241.82L96.8 241.82L96.8 245.78Z" />
		<path id="Layer" class="shp4" d="M89.13 245.78L85.17 245.78L85.17 241.82L89.13 241.82L89.13 245.78Z" />
		<path id="Layer" class="shp1" d="M81.46 245.78L77.5 245.78L77.5 241.82L81.46 241.82L81.46 245.78Z" />
		<path id="Layer" class="shp1" d="M104.46 252.98L100.5 252.98L100.5 249.02L104.46 249.02L104.46 252.98Z" />
		<path id="Layer" class="shp1" d="M96.8 252.98L92.84 252.98L92.84 249.02L96.8 249.02L96.8 252.98Z" />
		<path id="Layer" class="shp4" d="M89.13 252.98L85.17 252.98L85.17 249.02L89.13 249.02L89.13 252.98Z" />
		<path id="Layer" class="shp4" d="M81.46 252.98L77.5 252.98L77.5 249.02L81.46 249.02L81.46 252.98Z" />
		<path id="Layer" class="shp4" d="M296.63 223.34L324.34 223.34L324.34 257.34L296.63 257.34L296.63 223.34Z" />
		<path id="Layer" class="shp5" d="M299.04 227.12L305.48 227.12L307.26 227.12L309.03 227.12L309.03 230.66L307.26 230.66L305.48 230.66L299.04 230.66L299.04 227.12L299.04 227.12Z" />
		<path id="Layer" class="shp1" d="M299.04 233.99L305.48 233.99L307.26 233.99L309.03 233.99L309.03 237.54L307.26 237.54L305.48 237.54L299.04 237.54L299.04 233.99L299.04 233.99Z" />
		<path id="Layer" class="shp5" d="M299.04 240.86L305.48 240.86L307.26 240.86L309.03 240.86L309.03 244.41L307.26 244.41L305.48 244.41L299.04 244.41L299.04 240.86L299.04 240.86Z" />
		<path id="Layer" class="shp1" d="M299.04 247.73L305.48 247.73L308.22 247.73L309.03 247.73L309.03 251.28L308.22 251.28L305.48 251.28L299.04 251.28L299.04 247.73L299.04 247.73Z" />
		<path id="Layer" class="shp1" d="M311.93 227.12L318.38 227.12L320.15 227.12L321.92 227.12L321.92 230.66L320.15 230.66L318.38 230.66L311.93 230.66L311.93 227.12L311.93 227.12Z" />
		<path id="Layer" class="shp1" d="M311.93 233.99L318.38 233.99L320.88 233.99L321.92 233.99L321.92 237.54L320.88 237.54L318.38 237.54L311.93 237.54L311.93 233.99L311.93 233.99Z" />
		<path id="Layer" class="shp5" d="M311.93 240.86L318.38 240.86L320.15 240.86L321.92 240.86L321.92 244.41L320.15 244.41L318.38 244.41L311.93 244.41L311.93 240.86L311.93 240.86Z" />
		<path id="Layer" class="shp1" d="M311.93 247.73L318.38 247.73L320.15 247.73L321.92 247.73L321.92 251.28L320.15 251.28L318.38 251.28L311.93 251.28L311.93 247.73L311.93 247.73Z" />
		<path id="Layer" class="shp4" d="M165.63 236.22L190.81 236.22L190.81 257.35L165.63 257.35L165.63 236.22Z" />
		<path id="Layer" class="shp1" d="M189.2 242.08L185.98 242.08L185.98 238.86L189.2 238.86L189.2 242.08Z" />
		<path id="Layer" class="shp1" d="M182.96 242.08L179.74 242.08L179.74 238.86L182.96 238.86L182.96 242.08Z" />
		<path id="Layer" class="shp1" d="M176.71 242.08L173.49 242.08L173.49 238.86L176.71 238.86L176.71 242.08Z" />
		<path id="Layer" class="shp1" d="M170.47 242.08L167.25 242.08L167.25 238.86L170.47 238.86L170.47 242.08Z" />
		<path id="Layer" class="shp1" d="M189.2 247.93L185.98 247.93L185.98 244.71L189.2 244.71L189.2 247.93Z" />
		<path id="Layer" class="shp1" d="M182.96 247.93L179.74 247.93L179.74 244.71L182.96 244.71L182.96 247.93Z" />
		<path id="Layer" class="shp1" d="M176.71 247.93L173.49 247.93L173.49 244.71L176.71 244.71L176.71 247.93Z" />
		<path id="Layer" class="shp5" d="M170.47 247.93L167.25 247.93L167.25 244.71L170.47 244.71L170.47 247.93Z" />
		<path id="Layer" class="shp5" d="M189.2 253.79L185.98 253.79L185.98 250.57L189.2 250.57L189.2 253.79Z" />
		<path id="Layer" class="shp5" d="M182.96 253.79L179.74 253.79L179.74 250.57L182.96 250.57L182.96 253.79Z" />
		<path id="Layer" class="shp1" d="M176.71 253.79L173.49 253.79L173.49 250.57L176.71 250.57L176.71 253.79Z" />
		<path id="Layer" class="shp5" d="M170.47 253.79L167.25 253.79L167.25 250.57L170.47 250.57L170.47 253.79Z" />
		<path id="Layer" class="shp4" d="M137.04 220.6L162.22 220.6L162.22 257.35L137.04 257.35L137.04 220.6Z" />
		<path id="Layer" class="shp1" d="M151.14 222.21L160.61 222.21L160.61 231.29L151.14 231.29L151.14 222.21Z" />
		<path id="Layer" class="shp1" d="M138.65 222.21L148.12 222.21L148.12 231.29L138.65 231.29L138.65 222.21Z" />
		<path id="Layer" class="shp1" d="M151.14 233.92L160.61 233.92L160.61 243L151.14 243L151.14 233.92Z" />
		<path id="Layer" class="shp1" d="M138.65 233.92L148.12 233.92L148.12 243L138.65 243L138.65 233.92Z" />
		<path id="Layer" class="shp1" d="M151.14 245.63L160.61 245.63L160.61 254.71L151.14 254.71L151.14 245.63Z" />
		<path id="Layer" class="shp1" d="M138.65 245.63L148.12 245.63L148.12 254.71L138.65 254.71L138.65 245.63Z" />
	</g>
	<g id="freepik--Shadow--inject-2">
		<path id="freepik--path--inject-2" class="shp2" d="M209 379.56C101.78 379.56 15.11 374.5 15.11 368.24C15.11 361.98 101.78 356.92 209 356.92C316.22 356.92 402.89 361.98 402.89 368.24C402.89 374.5 316.22 379.56 209 379.56Z" />
	</g>
	<g id="freepik--Sheet--inject-2">
		<path id="Layer" class="shp6" d="M403.57 31.61L403.57 251.85L377.07 278.35L223.66 278.35L223.66 31.61L403.57 31.61L403.57 31.61Z" />
		<path id="Layer" class="shp7" d="M403.57 31.61L403.57 251.85L377.07 278.35L223.66 278.35L223.66 31.61L403.57 31.61L403.57 31.61Z" />
		<path id="Layer" class="shp8" d="M377.07 278.35L377.07 252.63L403.57 252.63L377.59 278.61" />
		<path id="Layer" class="shp9" d="M291.74 53L242.12 53C241.77 53 241.43 52.93 241.11 52.8C240.79 52.67 240.5 52.47 240.26 52.23C240.02 51.99 239.82 51.7 239.69 51.38C239.56 51.06 239.49 50.72 239.49 50.37L239.49 50.37C239.49 50.02 239.56 49.68 239.69 49.36C239.82 49.04 240.01 48.75 240.26 48.5C240.5 48.26 240.79 48.06 241.11 47.93C241.43 47.8 241.77 47.73 242.12 47.73L291.74 47.73C292.09 47.73 292.43 47.8 292.75 47.93C293.07 48.07 293.36 48.26 293.6 48.51C293.84 48.75 294.04 49.04 294.17 49.36C294.3 49.68 294.37 50.02 294.37 50.37L294.37 50.37C294.37 50.72 294.3 51.06 294.17 51.38C294.04 51.7 293.84 51.99 293.6 52.23C293.36 52.47 293.07 52.67 292.75 52.8C292.43 52.93 292.09 53 291.74 53Z" />
		<path id="Layer" class="shp9" d="M381.74 74.34L262.12 74.34C261.77 74.34 261.43 74.27 261.11 74.14C260.79 74.01 260.5 73.81 260.26 73.57C260.01 73.32 259.82 73.03 259.69 72.71C259.56 72.39 259.49 72.05 259.49 71.7L259.49 71.7C259.49 71.35 259.56 71.01 259.69 70.69C259.82 70.37 260.02 70.08 260.26 69.84C260.5 69.6 260.79 69.4 261.11 69.27C261.43 69.14 261.77 69.07 262.12 69.07L381.74 69.07C382.09 69.07 382.43 69.14 382.75 69.27C383.07 69.4 383.36 69.6 383.6 69.84C383.84 70.08 384.04 70.37 384.17 70.69C384.3 71.01 384.37 71.35 384.37 71.7L384.37 71.7C384.37 72.05 384.3 72.39 384.17 72.71C384.04 73.03 383.84 73.32 383.6 73.56C383.36 73.81 383.07 74 382.75 74.14C382.43 74.27 382.09 74.34 381.74 74.34L381.74 74.34Z" />
		<path id="Layer" class="shp9" d="M381.74 84.71L242.12 84.71C241.77 84.71 241.43 84.64 241.11 84.51C240.79 84.38 240.5 84.18 240.26 83.94C240.02 83.7 239.82 83.41 239.69 83.09C239.56 82.77 239.49 82.43 239.49 82.08L239.49 82.08C239.49 81.73 239.56 81.39 239.69 81.07C239.82 80.75 240.01 80.46 240.26 80.21C240.5 79.97 240.79 79.77 241.11 79.64C241.43 79.51 241.77 79.44 242.12 79.44L381.74 79.44C382.09 79.44 382.43 79.51 382.75 79.64C383.07 79.78 383.36 79.97 383.6 80.22C383.84 80.46 384.04 80.75 384.17 81.07C384.3 81.39 384.37 81.73 384.37 82.08L384.37 82.08C384.37 82.43 384.3 82.77 384.17 83.09C384.04 83.41 383.84 83.7 383.6 83.94C383.36 84.18 383.07 84.38 382.75 84.51C382.43 84.64 382.09 84.71 381.74 84.71Z" />
		<path id="Layer" class="shp9" d="M381.74 96.43L242.12 96.43C241.77 96.43 241.43 96.36 241.11 96.23C240.79 96.1 240.5 95.9 240.26 95.66C240.01 95.41 239.82 95.12 239.69 94.8C239.56 94.48 239.49 94.14 239.49 93.79L239.49 93.79C239.49 93.44 239.56 93.1 239.69 92.78C239.82 92.46 240.02 92.17 240.26 91.93C240.5 91.69 240.79 91.49 241.11 91.36C241.43 91.23 241.77 91.16 242.12 91.16L381.74 91.16C382.09 91.16 382.43 91.23 382.75 91.36C383.07 91.49 383.36 91.69 383.6 91.93C383.84 92.17 384.04 92.46 384.17 92.78C384.3 93.1 384.37 93.44 384.37 93.79L384.37 93.79C384.37 94.14 384.3 94.48 384.17 94.8C384.04 95.12 383.84 95.41 383.6 95.65C383.36 95.9 383.07 96.09 382.75 96.23C382.43 96.36 382.09 96.43 381.74 96.43L381.74 96.43Z" />
		<path id="Layer" class="shp9" d="M381.74 108.14L242.12 108.14C241.77 108.14 241.43 108.07 241.11 107.94C240.79 107.81 240.5 107.61 240.26 107.37C240.02 107.13 239.82 106.84 239.69 106.52C239.56 106.2 239.49 105.86 239.49 105.51L239.49 105.51C239.49 105.16 239.56 104.82 239.69 104.5C239.82 104.18 240.02 103.89 240.26 103.65C240.5 103.41 240.79 103.21 241.11 103.08C241.43 102.95 241.77 102.88 242.12 102.88L381.74 102.88C382.09 102.88 382.43 102.95 382.75 103.08C383.07 103.21 383.36 103.41 383.6 103.65C383.84 103.89 384.04 104.18 384.17 104.5C384.3 104.82 384.37 105.16 384.37 105.51L384.37 105.51C384.37 105.86 384.3 106.2 384.17 106.52C384.04 106.84 383.84 107.13 383.6 107.37C383.36 107.61 383.07 107.81 382.75 107.94C382.43 108.07 382.09 108.14 381.74 108.14Z" />
		<path id="Layer" class="shp9" d="M381.74 119.86L242.12 119.86C241.77 119.86 241.43 119.79 241.11 119.66C240.79 119.53 240.5 119.33 240.26 119.09C240.02 118.85 239.82 118.56 239.69 118.24C239.56 117.92 239.49 117.58 239.49 117.23L239.49 117.23C239.49 116.88 239.56 116.54 239.69 116.22C239.82 115.9 240.01 115.61 240.26 115.37C240.5 115.12 240.79 114.93 241.11 114.8C241.43 114.67 241.77 114.6 242.12 114.6L381.74 114.6C382.09 114.6 382.43 114.67 382.75 114.8C383.07 114.93 383.36 115.13 383.6 115.37C383.84 115.61 384.04 115.9 384.17 116.22C384.3 116.54 384.37 116.88 384.37 117.23L384.37 117.23C384.37 117.58 384.3 117.92 384.17 118.24C384.04 118.56 383.84 118.85 383.6 119.09C383.36 119.33 383.07 119.53 382.75 119.66C382.43 119.79 382.09 119.86 381.74 119.86Z" />
		<path id="Layer" class="shp9" d="M381.74 131.58L242.12 131.58C241.77 131.58 241.43 131.51 241.11 131.38C240.79 131.25 240.5 131.05 240.26 130.81C240.02 130.57 239.82 130.28 239.69 129.96C239.56 129.64 239.49 129.3 239.49 128.95L239.49 128.95C239.49 128.6 239.56 128.26 239.69 127.94C239.82 127.62 240.01 127.33 240.26 127.08C240.5 126.84 240.79 126.64 241.11 126.51C241.43 126.38 241.77 126.31 242.12 126.31L381.74 126.31C382.09 126.31 382.43 126.38 382.75 126.51C383.07 126.65 383.36 126.84 383.6 127.09C383.84 127.33 384.04 127.62 384.17 127.94C384.3 128.26 384.37 128.6 384.37 128.95L384.37 128.95C384.37 129.3 384.3 129.64 384.17 129.96C384.04 130.28 383.84 130.57 383.6 130.81C383.36 131.05 383.07 131.25 382.75 131.38C382.43 131.51 382.09 131.58 381.74 131.58Z" />
		<path id="Layer" class="shp9" d="M239.49 140.66C239.49 139.21 240.67 138.03 242.12 138.03L381.75 138.03C383.2 138.03 384.38 139.21 384.38 140.66L384.38 140.67C384.38 142.12 383.2 143.3 381.75 143.3L242.12 143.3C240.67 143.3 239.49 142.12 239.49 140.67L239.49 140.66Z" />
		<path id="Layer" class="shp9" d="M381.74 155L242.12 155C241.77 155 241.43 154.93 241.11 154.8C240.79 154.67 240.5 154.47 240.26 154.23C240.02 153.99 239.82 153.7 239.69 153.38C239.56 153.06 239.49 152.72 239.49 152.37L239.49 152.37C239.49 152.02 239.56 151.68 239.69 151.36C239.82 151.04 240.02 150.75 240.26 150.51C240.5 150.27 240.79 150.07 241.11 149.94C241.43 149.81 241.77 149.74 242.12 149.74L381.74 149.74C382.09 149.74 382.43 149.81 382.75 149.94C383.07 150.07 383.36 150.27 383.6 150.51C383.84 150.75 384.04 151.04 384.17 151.36C384.3 151.68 384.37 152.02 384.37 152.37L384.37 152.37C384.37 152.72 384.3 153.06 384.17 153.38C384.04 153.7 383.84 153.99 383.6 154.23C383.36 154.47 383.07 154.67 382.75 154.8C382.43 154.93 382.09 155 381.74 155Z" />
		<path id="Layer" class="shp9" d="M381.74 166.73L242.12 166.73C241.77 166.73 241.43 166.66 241.11 166.53C240.79 166.4 240.5 166.2 240.26 165.96C240.02 165.72 239.82 165.43 239.69 165.11C239.56 164.79 239.49 164.45 239.49 164.1L239.49 164.1C239.49 163.75 239.56 163.41 239.69 163.09C239.82 162.77 240.01 162.48 240.26 162.24C240.5 161.99 240.79 161.8 241.11 161.67C241.43 161.54 241.77 161.47 242.12 161.47L381.74 161.47C382.09 161.47 382.43 161.54 382.75 161.67C383.07 161.8 383.36 162 383.6 162.24C383.84 162.48 384.04 162.77 384.17 163.09C384.3 163.41 384.37 163.75 384.37 164.1L384.37 164.1C384.37 164.45 384.3 164.79 384.17 165.11C384.04 165.43 383.84 165.72 383.6 165.96C383.36 166.2 383.07 166.4 382.75 166.53C382.43 166.66 382.09 166.73 381.74 166.73Z" />
		<path id="Layer" class="shp9" d="M381.74 178.45L242.12 178.45C241.77 178.45 241.43 178.38 241.11 178.25C240.79 178.12 240.5 177.92 240.26 177.68C240.02 177.44 239.82 177.15 239.69 176.83C239.56 176.51 239.49 176.17 239.49 175.82L239.49 175.82C239.49 175.47 239.56 175.13 239.69 174.81C239.82 174.49 240.01 174.2 240.26 173.95C240.5 173.71 240.79 173.51 241.11 173.38C241.43 173.25 241.77 173.18 242.12 173.18L381.74 173.18C382.09 173.18 382.43 173.25 382.75 173.38C383.07 173.52 383.36 173.71 383.6 173.96C383.84 174.2 384.04 174.49 384.17 174.81C384.3 175.13 384.37 175.47 384.37 175.82L384.37 175.82C384.37 176.17 384.3 176.51 384.17 176.83C384.04 177.15 383.84 177.44 383.6 177.68C383.36 177.92 383.07 178.12 382.75 178.25C382.43 178.38 382.09 178.45 381.74 178.45Z" />
		<path id="Layer" class="shp9" d="M381.74 190.17L242.12 190.17C241.77 190.17 241.43 190.1 241.11 189.97C240.79 189.84 240.5 189.64 240.26 189.4C240.01 189.15 239.82 188.86 239.69 188.54C239.56 188.22 239.49 187.88 239.49 187.53L239.49 187.53C239.49 187.18 239.56 186.84 239.69 186.52C239.82 186.2 240.02 185.91 240.26 185.67C240.5 185.43 240.79 185.23 241.11 185.1C241.43 184.97 241.77 184.9 242.12 184.9L381.74 184.9C382.09 184.9 382.43 184.97 382.75 185.1C383.07 185.23 383.36 185.43 383.6 185.67C383.84 185.91 384.04 186.2 384.17 186.52C384.3 186.84 384.37 187.18 384.37 187.53L384.37 187.53C384.37 187.88 384.3 188.22 384.17 188.54C384.04 188.86 383.84 189.15 383.6 189.39C383.36 189.64 383.07 189.83 382.75 189.97C382.43 190.1 382.09 190.17 381.74 190.17L381.74 190.17Z" />
		<path id="Layer" class="shp9" d="M301.74 201.88L242.12 201.88C241.77 201.88 241.43 201.81 241.11 201.68C240.79 201.55 240.5 201.35 240.26 201.11C240.02 200.87 239.82 200.58 239.69 200.26C239.56 199.94 239.49 199.6 239.49 199.25L239.49 199.25C239.49 198.9 239.56 198.56 239.69 198.24C239.82 197.92 240.02 197.63 240.26 197.39C240.5 197.15 240.79 196.95 241.11 196.82C241.43 196.69 241.77 196.62 242.12 196.62L301.74 196.62C302.09 196.62 302.43 196.69 302.75 196.82C303.07 196.95 303.36 197.15 303.6 197.39C303.84 197.63 304.04 197.92 304.17 198.24C304.3 198.56 304.37 198.9 304.37 199.25L304.37 199.25C304.37 199.6 304.3 199.94 304.17 200.26C304.04 200.58 303.84 200.87 303.6 201.11C303.36 201.35 303.07 201.55 302.75 201.68C302.43 201.81 302.09 201.88 301.74 201.88Z" />
		<path id="Layer" class="shp6" d="M371 85.58L370.81 85.42C370.27 85.01 369.96 85.15 369.71 84.36C369.53 83.79 369.71 83.15 369.5 82.56C369.38 82.31 369.26 82.05 369.13 81.8C369 81.56 368.87 81.31 368.73 81.06C368.6 80.82 368.46 80.57 368.31 80.33C368.17 80.09 368.02 79.86 367.87 79.62L365.41 75.19C365.14 74.7 364.77 74.28 364.34 73.93C363.9 73.59 363.4 73.33 362.86 73.18C362.33 73.03 361.77 72.98 361.21 73.04C360.66 73.11 360.13 73.28 359.64 73.55L336.99 86.17C336.9 86.93 336.27 87.45 336.14 88.17C336.12 88.28 336.11 88.38 336.11 88.49C336.12 88.6 336.14 88.71 336.17 88.81C336.21 88.91 336.25 89.01 336.31 89.1C336.37 89.19 336.44 89.28 336.52 89.35C336.46 89.35 336.39 89.34 336.33 89.33C336.27 89.32 336.21 89.3 336.15 89.28C336.09 89.26 336.03 89.23 335.98 89.2C335.92 89.17 335.87 89.14 335.82 89.1C334.47 88.35 334.11 87.75 332.72 88.51C332.12 88.83 331.53 89.17 330.94 89.51L324.94 92.86L306.14 103.33L284.14 115.61L265.81 125.82C263.31 127.21 260.28 128.43 258.05 130.2C258.67 130.52 258.78 131.01 258.23 131.49L257.23 132.4C257.23 132.65 257.59 132.65 257.82 132.55L259.06 132.02C258.85 132.29 258.62 132.56 258.38 132.81C258.15 133.06 257.9 133.31 257.64 133.54C257.38 133.78 257.12 134 256.84 134.21C256.57 134.42 256.28 134.62 255.99 134.81C255.5 135.09 255 135.36 254.49 135.61C253.98 135.86 253.46 136.1 252.94 136.31C252.41 136.53 251.88 136.73 251.34 136.91C250.8 137.09 250.26 137.25 249.71 137.39L250.77 136.06C250.85 135.95 250.95 135.81 250.88 135.68C250.81 135.55 250.68 135.54 250.56 135.53C250.03 135.47 249.5 135.53 249.11 135.14C245.69 137.14 242.11 139.04 238.63 140.98C238.14 141.25 237.72 141.62 237.37 142.05C237.03 142.49 236.77 142.99 236.62 143.53C236.47 144.06 236.42 144.62 236.48 145.18C236.55 145.73 236.72 146.26 236.99 146.75L259.83 187.75C260.1 188.24 260.46 188.66 260.9 189.01C261.34 189.36 261.83 189.61 262.37 189.76C262.9 189.92 263.46 189.96 264.02 189.9C264.57 189.83 265.1 189.66 265.59 189.39L271.6 186C271.6 185.29 272.16 184.5 271.74 183.85C271.73 183.83 271.71 183.81 271.7 183.79C271.69 183.77 271.68 183.74 271.67 183.72C271.66 183.7 271.65 183.68 271.64 183.65C271.64 183.63 271.63 183.6 271.63 183.58C271.63 183.45 271.75 183.35 271.86 183.28C272.01 183.18 272.17 183.1 272.34 183.02C272.5 182.94 272.67 182.87 272.84 182.82C273.02 182.76 273.19 182.72 273.37 182.69C273.55 182.65 273.73 182.63 273.91 182.62C274.16 182.62 274.49 182.73 274.45 182.97C274.45 182.75 275.74 182.29 275.95 182.22C276.05 182.76 275.68 183.34 276.31 183.45C276.94 183.56 277.9 182.45 278.31 182.25L284.31 178.9L303.31 168.33L324.15 156.72L338 149C338.5 148.71 339.09 148.37 339.57 148.13C339.61 147.9 339.67 147.68 339.75 147.46C339.83 147.24 339.92 147.03 340.03 146.82C340.14 146.62 340.26 146.42 340.4 146.24C340.53 146.05 340.69 145.87 340.85 145.71C341.85 145.02 343.43 145.78 344.26 144.8C344.42 144.61 344.52 144.38 344.66 144.18C344.73 144.1 344.8 144.02 344.88 143.95C344.96 143.87 345.04 143.8 345.12 143.74C345.21 143.67 345.29 143.61 345.38 143.55C345.47 143.49 345.57 143.44 345.66 143.39C345.72 143.34 345.78 143.3 345.85 143.26C345.92 143.22 345.98 143.19 346.06 143.16C346.13 143.14 346.2 143.11 346.27 143.1C346.35 143.08 346.42 143.07 346.5 143.06C346.8 143.06 347.12 143.31 347.08 143.61C349.14 143.13 351 141.74 352.82 140.71C353.48 140.34 359.27 137.62 359.25 137.19C359.17 135.86 359.98 134.72 359.94 133.35C359.94 133.09 359.43 131.35 359.66 131.22C354.46 134.32 349.06 137.14 343.76 140.08C343.58 140.19 342.9 140.42 342.76 140.62C342.76 140.62 342.71 140.71 342.69 140.76L342.54 141.09L342.54 141.17C342.49 141.34 342.43 141.51 342.37 141.68C342.31 141.85 342.25 142.01 342.19 142.18C342.13 142.35 342.06 142.51 341.99 142.68C341.92 142.84 341.85 143.01 341.78 143.17C341.78 143.26 340.65 144.66 340.56 144.33C340.12 142.72 339.56 142.47 338.33 143.13L336.57 144.13L330.98 147.24L312.15 157.74L289.96 170.1L271.47 180.4L263.72 184.71C262.17 181.91 260.62 179.11 259.05 176.32L256.05 170.93C255.97 170.74 255.89 170.56 255.8 170.38C255.7 170.21 255.6 170.03 255.49 169.86C255.38 169.7 255.26 169.53 255.13 169.38C255.01 169.22 254.87 169.07 254.73 168.93C254.3 168.61 253.57 168.69 253.19 168.4C252.26 167.69 251.59 166.4 250.71 165.57C250.11 165.01 249.2 163.33 249.45 162.4C249.75 162.52 250.05 162.65 250.35 162.74C250.31 162.59 250.28 162.43 250.27 162.27C250.25 162.12 250.25 161.96 250.26 161.8C250.27 161.64 250.29 161.49 250.32 161.33C250.35 161.18 250.39 161.03 250.45 160.88C247.45 155.83 244.69 150.55 241.82 145.39L241.63 145.06L248.63 141.16L253.74 138.31C254 138.2 254.26 138.08 254.52 137.95C254.78 137.83 255.03 137.7 255.28 137.56C255.53 137.42 255.78 137.28 256.02 137.13C256.26 136.98 256.5 136.82 256.74 136.66C257.39 136.1 258.05 135.4 258.74 134.8C258.86 134.71 258.97 134.63 259.09 134.55C259.22 134.47 259.34 134.39 259.46 134.32C259.59 134.24 259.72 134.17 259.85 134.11C259.98 134.04 260.11 133.98 260.24 133.92L262.13 133C262.15 132.99 262.18 132.97 262.2 132.96C262.23 132.95 262.26 132.94 262.28 132.93C262.31 132.92 262.34 132.92 262.37 132.91C262.39 132.91 262.42 132.9 262.45 132.9C262.48 132.9 262.51 132.91 262.53 132.91C262.56 132.92 262.59 132.92 262.62 132.93C262.65 132.94 262.67 132.94 262.7 132.95C262.73 132.96 262.75 132.97 262.78 132.98C263.78 133.19 266.26 131.34 267.16 130.84L272.98 127.6L290.54 117.81L312.42 105.63L334.32 93.42L351.94 83.61L360.94 78.61L361.36 78.38L371.09 95.85C371.24 96.14 371.41 96.42 371.61 96.69C371.8 96.95 372.01 97.2 372.25 97.43C372.48 97.66 372.73 97.87 373 98.06C373.26 98.25 373.55 98.42 373.84 98.57C374.24 98.7 374.69 98.98 374.64 99.39C374.59 99.8 373.99 100.14 374.13 100.56C374.27 100.98 375.04 100.82 375.22 101.2C375.4 101.58 374.91 102.2 374.97 102.72C375.02 102.88 375.08 103.03 375.14 103.18C375.21 103.33 375.28 103.48 375.35 103.62C375.43 103.77 375.51 103.91 375.6 104.05C375.69 104.19 375.78 104.32 375.88 104.45L378.71 109.54C380.29 112.36 381.86 115.19 383.45 118.04L366.15 127.68C366.17 127.7 366.19 127.72 366.21 127.73C366.23 127.75 366.25 127.77 366.27 127.79C366.28 127.82 366.3 127.84 366.32 127.86C366.33 127.88 366.35 127.91 366.36 127.93L366.45 128.16C366.54 128.19 366.62 128.22 366.71 128.26C366.79 128.29 366.87 128.32 366.96 128.36C367.04 128.4 367.12 128.44 367.21 128.48C367.29 128.52 367.37 128.56 367.45 128.6C367.52 128.64 367.58 128.69 367.64 128.74C367.69 128.8 367.74 128.86 367.78 128.93C367.82 129 367.85 129.07 367.87 129.15C367.88 129.22 367.89 129.3 367.89 129.38C367.89 129.46 367.88 129.53 367.86 129.61C367.83 129.68 367.8 129.76 367.76 129.82C367.72 129.89 367.67 129.95 367.62 130C367.56 130.06 367.5 130.1 367.43 130.14L366.37 130.74C366.35 130.86 366.32 130.97 366.26 131.07C366.21 131.18 366.14 131.27 366.06 131.36C365.98 131.44 365.89 131.51 365.79 131.57C365.68 131.63 365.57 131.67 365.46 131.69C365.43 131.69 365.4 131.69 365.37 131.7C365.34 131.7 365.31 131.7 365.27 131.7C365.24 131.7 365.21 131.7 365.18 131.7C365.15 131.69 365.12 131.69 365.09 131.69C365.04 131.73 364.98 131.76 364.92 131.79C364.86 131.81 364.8 131.83 364.74 131.85C364.67 131.86 364.61 131.87 364.54 131.86C364.48 131.86 364.41 131.85 364.35 131.84C364.24 131.81 364.13 131.75 364.04 131.68C363.95 131.6 363.87 131.51 363.82 131.41C363.76 131.31 363.72 131.19 363.71 131.08C363.69 130.96 363.7 130.84 363.73 130.73C363.74 130.7 363.75 130.68 363.76 130.65C363.78 130.63 363.79 130.6 363.8 130.58C363.81 130.56 363.83 130.53 363.84 130.51C363.86 130.49 363.87 130.46 363.89 130.44C363.85 130.37 363.82 130.29 363.81 130.21C363.79 130.13 363.78 130.05 363.79 129.97C363.8 129.89 363.81 129.8 363.84 129.73C363.87 129.65 363.9 129.58 363.95 129.51L363.63 129.51C363.45 129.51 363.29 129.41 363.12 129.36C362.9 129.5 362.68 129.65 362.49 129.82C362.29 129.99 362.1 130.18 361.93 130.38C361.76 130.58 361.61 130.79 361.47 131.02C361.34 131.24 361.22 131.48 361.12 131.72C361.11 131.73 361.1 131.75 361.09 131.76C361.08 131.78 361.08 131.79 361.07 131.81C361.07 131.83 361.06 131.84 361.06 131.86C361.06 131.88 361.06 131.89 361.06 131.91C361.06 132.05 361.28 132.06 361.41 132.12C361.71 132.26 361.64 132.7 361.49 132.99C361.34 133.28 361.16 133.65 361.36 133.91C361.38 133.93 361.4 133.95 361.42 133.97C361.44 134 361.46 134.02 361.48 134.04C361.5 134.06 361.52 134.08 361.54 134.09C361.57 134.11 361.59 134.13 361.61 134.15C362.04 134.64 361.38 136.06 362.43 135.48C362.41 135.4 362.4 135.33 362.4 135.25C362.39 135.17 362.4 135.09 362.41 135.01C362.42 134.93 362.44 134.86 362.46 134.78C362.49 134.71 362.52 134.64 362.56 134.57C362.6 134.5 362.65 134.44 362.71 134.38C362.77 134.32 362.83 134.26 362.89 134.21C362.96 134.17 363.03 134.12 363.1 134.09C363.17 134.05 363.25 134.02 363.33 134C363.52 133.95 363.72 133.91 363.92 133.87C364.11 133.83 364.31 133.8 364.51 133.77C364.7 133.74 364.9 133.72 365.1 133.7C365.3 133.68 365.5 133.67 365.7 133.66L386.55 122C387.04 121.73 387.46 121.36 387.81 120.93C388.15 120.49 388.41 119.99 388.56 119.45C388.71 118.92 388.76 118.36 388.7 117.8C388.63 117.25 388.46 116.72 388.19 116.23L388.07 116.02L378.65 99.11L373.21 89.33C372.68 88.4 372.21 87.43 371.63 86.51C371.59 86.42 371.55 86.34 371.5 86.26C371.45 86.18 371.4 86.1 371.35 86.02C371.3 85.94 371.24 85.87 371.18 85.79C371.13 85.72 371.06 85.65 371 85.58L371 85.58Z" />
		<path id="Layer" fill-rule="evenodd" class="shp6" d="M275.6 139.26C275.54 139.3 275.49 139.35 275.43 139.4C275.52 138.87 275.43 138.23 275.65 138.14C280.8 135.98 286.68 138.75 289.27 143.4C289.89 144.46 290.32 145.61 290.56 146.82C290.81 148.02 290.85 149.25 290.69 150.47C290.52 151.68 290.16 152.86 289.62 153.96C289.07 155.06 288.35 156.06 287.48 156.92C287.39 156.86 287.29 156.82 287.18 156.78C287.08 156.75 286.97 156.73 286.86 156.72C286.75 156.71 286.64 156.71 286.53 156.72C286.42 156.74 286.31 156.76 286.21 156.8C285.66 157.05 286.15 157.88 285.84 158.41C285.53 158.94 284.27 159.47 283.74 159.77L274.53 164.9C274.51 164.91 270.08 156.85 269.59 156.05C270.16 155.05 269.63 154.05 269.74 153.05C269.78 152.86 269.81 152.67 269.82 152.48C269.83 152.29 269.82 152.1 269.79 151.91C269.76 151.72 269.72 151.53 269.66 151.35C269.59 151.17 269.52 151 269.42 150.83C269.39 150.79 269.36 150.75 269.32 150.71C269.29 150.68 269.25 150.65 269.21 150.62C269.17 150.59 269.12 150.57 269.07 150.55C269.03 150.53 268.98 150.51 268.93 150.5C268.88 150.5 268.83 150.51 268.78 150.51C268.73 150.52 268.68 150.52 268.63 150.53C268.58 150.54 268.53 150.55 268.48 150.56C268.43 150.57 268.38 150.59 268.33 150.6C268.26 150.61 266.43 150.34 266.93 151.25L263.23 144.61L272.44 139.48C272.91 139.22 273.38 138.99 273.85 138.78L273.97 138.92L274.05 139.01C274.05 139.07 274.05 139.07 274.05 139.07C274.18 139.97 273.97 139.99 274.66 140.83M266.94 151.26C266.94 151.26 266.94 151.25 266.93 151.25L266.94 151.26ZM274.91 140.08C274.95 140 275 139.92 275.05 139.85C275.1 139.77 275.15 139.7 275.21 139.63C275.27 139.56 275.33 139.5 275.39 139.43C275.41 139.42 275.42 139.41 275.43 139.4C275.37 139.73 275.24 140.01 274.91 140.08ZM284.58 146C282.42 142.12 278.42 141.19 274.42 143.43L270.13 145.82C271.12 147.64 272.12 149.46 273.13 151.28C273.29 151.52 273.43 151.78 273.55 152.04C273.68 152.3 273.78 152.57 273.86 152.85C273.95 153.13 274.01 153.41 274.06 153.69C274.1 153.98 274.13 154.27 274.13 154.56C274.15 155.24 274.32 156.45 274.95 156.87C275.21 157.04 276.45 157.28 276 156.52C276.36 157.13 276.7 157.76 277.05 158.39L281.34 156C285.37 153.79 286.74 149.88 284.58 146ZM276 156.52C276 156.52 276 156.52 276 156.52C276 156.52 276 156.52 276 156.52Z" />
		<path id="Layer" class="shp6" d="M305.11 123.8C305.16 123.92 305.21 124.04 305.24 124.16C305.28 124.29 305.3 124.42 305.32 124.55C305.34 124.67 305.34 124.8 305.34 124.93C305.33 125.06 305.32 125.19 305.29 125.32C305.24 125.6 304.79 126.32 304.85 126.5C305.01 126.9 305.17 127.3 305.32 127.7C305.33 127.72 305.33 127.73 305.34 127.75C305.35 127.76 305.36 127.78 305.37 127.79C305.38 127.81 305.39 127.82 305.4 127.84C305.41 127.85 305.42 127.87 305.43 127.88C305.45 127.89 305.47 127.9 305.49 127.91C305.51 127.92 305.53 127.93 305.55 127.94C305.58 127.95 305.6 127.95 305.62 127.95C305.64 127.96 305.67 127.96 305.69 127.96C307.28 128.1 307.21 128.26 307.31 129.6C307.4 130.75 308.39 131.41 308.95 132.41C309.7 133.72 310.03 135.24 309.89 136.75C309.74 138.25 309.14 139.68 308.15 140.83C307.16 141.98 305.85 142.79 304.38 143.16C302.91 143.53 301.36 143.43 299.95 142.89C299.94 142.9 299.93 142.91 299.92 142.92C299.91 142.93 299.9 142.93 299.89 142.94C299.88 142.95 299.87 142.96 299.86 142.97C299.85 142.97 299.84 142.98 299.83 142.99C299.78 143.02 299.72 143.04 299.67 143.05C299.61 143.07 299.55 143.08 299.5 143.09C299.44 143.1 299.38 143.1 299.32 143.1C299.26 143.09 299.21 143.08 299.15 143.07C298.89 143 298.64 142.89 298.41 142.75C298.18 142.61 297.97 142.44 297.79 142.25C297.6 142.05 297.45 141.83 297.32 141.59C297.19 141.36 297.1 141.1 297.04 140.84C297.04 140.82 297.03 140.8 297.03 140.78C297.03 140.76 297.03 140.74 297.03 140.72C297.03 140.7 297.03 140.68 297.03 140.66C297.03 140.64 297.04 140.62 297.04 140.6C296.97 140.51 296.9 140.42 296.83 140.33C296.77 140.24 296.7 140.15 296.64 140.06C296.58 139.96 296.52 139.87 296.46 139.77C296.4 139.68 296.34 139.58 296.29 139.48C295.78 138.65 295.44 137.73 295.3 136.77C295.16 135.8 295.22 134.82 295.47 133.88C295.73 132.95 296.18 132.07 296.79 131.31C297.4 130.55 298.16 129.93 299.02 129.48C299.33 129.3 299.65 129.15 299.99 129.02C300.32 128.89 300.66 128.78 301.01 128.7C301.36 128.63 301.71 128.57 302.07 128.54C302.43 128.52 302.78 128.52 303.14 128.54L303.06 128.42C302.2 127.28 305.3 126.82 303.9 126.05C303.31 125.73 303.41 124.28 303.26 123.69C302.69 123.7 302.13 123.75 301.57 123.83C301.01 123.92 300.46 124.03 299.91 124.18C299.37 124.33 298.83 124.52 298.31 124.73C297.79 124.95 297.28 125.2 296.79 125.48C290.39 129.05 288.18 136.12 291.54 142.15C291.89 142.79 292.3 143.4 292.76 143.96C293.22 144.53 293.74 145.05 294.3 145.52C294.85 145.99 295.46 146.41 296.09 146.77C296.73 147.13 297.4 147.43 298.09 147.66C298.25 147.73 298.42 147.8 298.59 147.85C298.76 147.91 298.93 147.96 299.11 148C299.28 148.04 299.46 148.07 299.64 148.09C299.81 148.12 299.99 148.13 300.17 148.14C300.99 148.07 300.59 148.14 300.94 147.65C301.29 147.16 301.08 146.95 301.61 146.43C302.14 145.91 302.76 145.6 302.87 144.8C302.87 145.16 303.27 145.42 303.27 145.8C303.27 145.91 303.27 146.02 303.27 146.12C303.28 146.15 303.28 146.18 303.29 146.22C303.3 146.25 303.32 146.28 303.33 146.31C303.34 146.34 303.36 146.37 303.38 146.39C303.4 146.42 303.42 146.45 303.44 146.47C303.78 146.93 304.35 147.47 304.36 148C304.72 147.94 305.09 147.86 305.44 147.77C305.8 147.67 306.15 147.56 306.5 147.43C306.85 147.31 307.19 147.16 307.52 147C307.86 146.84 308.18 146.67 308.5 146.48C314.87 142.93 317.13 135.87 313.75 129.82C312 126.73 308.71 124 305.11 123.8Z" />
		<path id="Layer" class="shp6" d="M325.56 109.88L332.42 122.19L315.48 115.49L311.6 117.66C314.22 122.36 317 127.01 319.46 131.8C319.63 131.28 320.03 131.18 320.51 131.11C321.41 130.99 321.38 131.44 321.87 132.33C321.93 132.44 322 132.55 322.11 132.57C322.22 132.59 322.44 132.41 322.62 132.43C322.8 132.45 322.87 132.67 322.82 132.84C322.8 132.88 322.79 132.92 322.77 132.96C322.75 133 322.73 133.04 322.71 133.08C322.69 133.12 322.67 133.16 322.64 133.2C322.62 133.24 322.6 133.27 322.57 133.31C322.28 133.86 322.76 134.21 322.7 134.71C322.7 134.97 321.83 136.03 321.93 136.21L322.93 137.93L327.57 135.35L326.33 133.13L326.1 133.13C324.75 133.31 325.35 131.54 325.05 130.81C324.93 130.55 324.8 130.3 324.67 130.04C324.54 129.79 324.41 129.53 324.27 129.28C324.14 129.03 323.99 128.79 323.85 128.54C323.7 128.29 323.55 128.05 323.4 127.81L320.67 123L334.44 128.42C334.43 128.32 334.43 128.22 334.43 128.12C334.43 128.02 334.44 127.93 334.45 127.83C334.46 127.73 334.48 127.63 334.5 127.54C334.52 127.44 334.55 127.34 334.58 127.25C334.69 127.04 335.58 126.65 335.58 126.45C335.59 126.61 335.62 126.77 335.66 126.92C335.71 127.07 335.76 127.22 335.84 127.37C335.91 127.51 335.99 127.65 336.09 127.77C336.19 127.9 336.3 128.01 336.42 128.12C336.95 128.59 336.95 128.52 336.85 129.35L337.67 129.68L341.53 127.53L330.23 107.26L325.56 109.88Z" />
		<path id="Layer" class="shp6" d="M348.87 118.53L346.25 113.84L355.67 108.59L353.67 104.94L344.26 110.19L341.81 105.78L348.17 102.24C348.24 102.15 348.31 102.07 348.38 101.99C348.46 101.91 348.54 101.84 348.62 101.77C348.71 101.7 348.8 101.64 348.89 101.58C348.98 101.52 349.07 101.46 349.17 101.41C349.22 101.38 349.27 101.36 349.32 101.35C349.38 101.33 349.43 101.32 349.48 101.32C349.54 101.31 349.59 101.31 349.65 101.31C349.7 101.32 349.76 101.33 349.81 101.34L352.5 99.85C352.5 99.85 350.59 96.44 350.41 96.08C349.49 96.5 350.41 97.66 349.48 98.22C349.67 98.42 349.95 99.13 349.48 99.22C349.21 99.22 349.01 98.88 348.74 98.91C348.47 98.94 348.46 99.07 348.32 99.03C348.3 99.02 348.28 99.02 348.26 99.01C348.24 98.99 348.22 98.98 348.21 98.97C348.19 98.95 348.17 98.94 348.16 98.92C348.15 98.9 348.14 98.88 348.13 98.86C348.1 98.78 348.06 98.71 348.03 98.64C347.99 98.56 347.95 98.49 347.91 98.42C347.87 98.35 347.83 98.28 347.78 98.21C347.74 98.14 347.69 98.08 347.64 98.01C347.01 97.4 341.26 101.23 340.46 101.68L335.11 104.68L346.4 124.95L350.91 122.44L351 122.32C351.33 121.9 351.65 121.47 352 121.08C352.07 121.01 352.15 120.96 352.24 120.92C352.33 120.87 352.42 120.85 352.52 120.84C352.62 120.82 352.71 120.83 352.81 120.85C352.9 120.87 353 120.9 353.08 120.95C353.1 120.96 353.12 120.97 353.14 120.98C353.16 121 353.18 121.01 353.19 121.02C353.21 121.04 353.23 121.05 353.24 121.07C353.26 121.09 353.28 121.1 353.29 121.12L362.1 116.21L360 112.44L348.87 118.53Z" />
	</g>
	<g id="freepik--Plant--inject-2">
		<path id="Layer" class="shp6" d="M360.9 334.21C360.9 334.21 354.32 319.87 361.83 305.72C369.34 291.57 371.53 288.24 366.74 285.35C361.95 282.46 359.74 296.66 359.74 296.66C359.74 296.66 355.74 286.88 359.03 276.66C362.32 266.44 364.46 249.76 359.91 247.97C355.36 246.18 359.04 268.76 355.09 276.46C354.59 275.11 354.13 273.75 353.71 272.37C353.3 270.99 352.93 269.59 352.61 268.19C352.28 266.79 352.01 265.37 351.78 263.95C351.54 262.53 351.36 261.1 351.22 259.67C350.68 251.45 351.53 238.33 347.93 234.96C344.33 231.59 342.04 233.96 345.57 252.06C346.1 254.77 346.57 257.49 346.98 260.22C347.4 262.95 347.75 265.68 348.04 268.43C348.33 271.17 348.57 273.92 348.74 276.68C348.91 279.43 349.03 282.19 349.08 284.95C349.13 287.71 341.27 261.15 336.08 260.46C330.89 259.77 330.85 267.46 335.34 274.15C339.83 280.84 348.43 292.8 349.84 299C349.84 299 341.28 281.1 333.57 286.58C325.86 292.06 340.28 302.89 346.7 306.8C353.12 310.71 357.59 335.2 357.59 335.2L360.9 334.21Z" />
		<path id="Layer" class="shp8" d="M360.9 334.21C360.9 334.21 354.32 319.87 361.83 305.72C369.34 291.57 371.53 288.24 366.74 285.35C361.95 282.46 359.74 296.66 359.74 296.66C359.74 296.66 355.74 286.88 359.03 276.66C362.32 266.44 364.46 249.76 359.91 247.97C355.36 246.18 359.04 268.76 355.09 276.46C354.59 275.11 354.13 273.75 353.71 272.37C353.3 270.99 352.93 269.59 352.61 268.19C352.28 266.79 352.01 265.37 351.78 263.95C351.54 262.53 351.36 261.1 351.22 259.67C350.68 251.45 351.53 238.33 347.93 234.96C344.33 231.59 342.04 233.96 345.57 252.06C346.1 254.77 346.57 257.49 346.98 260.22C347.4 262.95 347.75 265.68 348.04 268.43C348.33 271.17 348.57 273.92 348.74 276.68C348.91 279.43 349.03 282.19 349.08 284.95C349.13 287.71 341.27 261.15 336.08 260.46C330.89 259.77 330.85 267.46 335.34 274.15C339.83 280.84 348.43 292.8 349.84 299C349.84 299 341.28 281.1 333.57 286.58C325.86 292.06 340.28 302.89 346.7 306.8C353.12 310.71 357.59 335.2 357.59 335.2L360.9 334.21Z" />
		<path id="Layer" class="shp6" d="M355.7 340.1C355.7 340.1 362.11 325.65 354.43 311.62C346.75 297.59 344.52 294.29 349.28 291.32C354.04 288.35 356.4 302.53 356.4 302.53C356.4 302.53 360.32 292.7 356.87 282.53C353.42 272.36 351.12 255.71 355.65 253.86C360.18 252.01 356.77 274.64 360.81 282.27C361.3 280.91 361.74 279.54 362.14 278.16C362.53 276.77 362.89 275.38 363.19 273.97C363.5 272.56 363.76 271.15 363.97 269.72C364.18 268.3 364.35 266.87 364.47 265.43C364.92 257.2 363.91 244.09 367.47 240.67C371.03 237.25 373.36 239.55 370.04 257.74C369.54 260.45 369.1 263.18 368.73 265.91C368.35 268.65 368.03 271.39 367.77 274.14C367.51 276.89 367.31 279.64 367.17 282.39C367.03 285.15 366.95 287.91 366.93 290.67C366.91 293.43 374.45 266.76 379.68 265.99C384.91 265.22 384.99 272.92 380.59 279.67C376.19 286.42 367.69 298.52 366.34 304.67C366.34 304.67 374.69 286.67 382.46 292.02C390.23 297.37 375.95 308.42 369.58 312.42C363.21 316.42 359 341 359 341L355.7 340.1Z" />
		<path id="Layer" class="shp10" d="M385.24 329.8L332.34 329.8L336.62 367.66L380.96 367.66L385.24 329.8L385.24 329.8Z" />
	</g>
	<g id="freepik--speech-bubble--inject-2">
		<path id="Layer" class="shp6" d="M114.63 91.75L79.72 91.75C79.05 91.75 78.39 91.88 77.78 92.14C77.16 92.39 76.61 92.76 76.13 93.23C75.66 93.71 75.29 94.26 75.04 94.88C74.78 95.49 74.65 96.15 74.65 96.82L74.65 130.76C74.65 131.43 74.78 132.09 75.04 132.7C75.29 133.32 75.66 133.87 76.13 134.35C76.61 134.82 77.16 135.19 77.78 135.44C78.39 135.7 79.05 135.83 79.72 135.83L90.89 135.83L83.37 146.05L96.37 135.83L114.62 135.83C115.29 135.83 115.95 135.7 116.56 135.44C117.18 135.19 117.73 134.82 118.21 134.35C118.68 133.87 119.05 133.32 119.3 132.7C119.56 132.09 119.69 131.43 119.69 130.76L119.69 96.82C119.69 96.16 119.56 95.5 119.31 94.88C119.05 94.27 118.68 93.71 118.21 93.24C117.74 92.77 117.18 92.39 116.57 92.14C115.95 91.88 115.29 91.75 114.63 91.75L114.63 91.75Z" />
		<path id="Layer" class="shp11" d="M114.63 91.75L79.72 91.75C79.05 91.75 78.39 91.88 77.78 92.14C77.16 92.39 76.61 92.76 76.13 93.23C75.66 93.71 75.29 94.26 75.04 94.88C74.78 95.49 74.65 96.15 74.65 96.82L74.65 130.76C74.65 131.43 74.78 132.09 75.04 132.7C75.29 133.32 75.66 133.87 76.13 134.35C76.61 134.82 77.16 135.19 77.78 135.44C78.39 135.7 79.05 135.83 79.72 135.83L90.89 135.83L83.37 146.05L96.37 135.83L114.62 135.83C115.29 135.83 115.95 135.7 116.56 135.44C117.18 135.19 117.73 134.82 118.21 134.35C118.68 133.87 119.05 133.32 119.3 132.7C119.56 132.09 119.69 131.43 119.69 130.76L119.69 96.82C119.69 96.16 119.56 95.5 119.31 94.88C119.05 94.27 118.68 93.71 118.21 93.24C117.74 92.77 117.18 92.39 116.57 92.14C115.95 91.88 115.29 91.75 114.63 91.75L114.63 91.75Z" />
		<path id="Layer" class="shp6" d="M97.18 129.64C88.41 129.64 81.33 122.56 81.33 113.79C81.33 105.02 88.41 97.94 97.18 97.94C105.95 97.94 113.03 105.02 113.03 113.79C113.03 122.56 105.95 129.64 97.18 129.64Z" />
		<path id="Layer" class="shp8" d="M110.4 116.9C108.68 124.22 101.37 128.73 94.05 127.01C86.74 125.28 82.22 117.97 83.95 110.66C85.67 103.34 92.98 98.83 100.3 100.55C107.61 102.28 112.13 109.59 110.4 116.9Z" />
		<path id="Layer" class="shp12" d="M95.49 120.28C95.4 120.28 95.31 120.27 95.22 120.26C95.13 120.24 95.04 120.22 94.95 120.18C94.87 120.15 94.78 120.11 94.71 120.06C94.63 120.01 94.56 119.95 94.49 119.89L88.72 114.24C88.46 113.98 88.31 113.63 88.3 113.26C88.29 112.89 88.44 112.54 88.69 112.27C88.95 112.01 89.3 111.86 89.67 111.85C90.04 111.84 90.39 111.99 90.66 112.24L95.39 116.87L103.57 107.74C103.82 107.49 104.16 107.34 104.52 107.33C104.87 107.32 105.22 107.45 105.48 107.68C105.75 107.92 105.91 108.25 105.94 108.6C105.97 108.96 105.86 109.31 105.64 109.59L96.49 119.8C96.43 119.87 96.36 119.93 96.28 119.99C96.21 120.05 96.12 120.09 96.04 120.13C95.95 120.17 95.86 120.2 95.77 120.23C95.68 120.25 95.58 120.26 95.49 120.26L95.49 120.28Z" />
	</g>
	<g id="freepik--Character--inject-2">
		<path id="Layer" class="shp10" d="M51.9 344.92L80.71 342.08L80.71 309.59L92.13 309.59L92.13 342.07L121.06 344.92C121.75 344.99 122.42 345.18 123.03 345.49C123.65 345.8 124.2 346.22 124.67 346.73C125.13 347.24 125.5 347.84 125.75 348.48C125.99 349.12 126.12 349.81 126.12 350.5L126.12 354.83L46.84 354.83L46.84 350.5C46.84 349.81 46.97 349.12 47.21 348.48C47.46 347.84 47.83 347.24 48.29 346.73C48.76 346.22 49.31 345.8 49.93 345.49C50.54 345.18 51.21 344.99 51.9 344.92L51.9 344.92Z" />
		<path id="Layer" class="shp13" d="M51.9 344.92L80.71 342.08L80.71 309.59L92.13 309.59L92.13 342.07L121.06 344.92C121.75 344.99 122.42 345.18 123.03 345.49C123.65 345.8 124.2 346.22 124.67 346.73C125.13 347.24 125.5 347.84 125.75 348.48C125.99 349.12 126.12 349.81 126.12 350.5L126.12 354.83L46.84 354.83L46.84 350.5C46.84 349.81 46.97 349.12 47.21 348.48C47.46 347.84 47.83 347.24 48.29 346.73C48.76 346.22 49.31 345.8 49.93 345.49C50.54 345.18 51.21 344.99 51.9 344.92L51.9 344.92Z" />
		<path id="Layer" class="shp10" d="M123.07 367.66C118.94 367.66 115.6 364.32 115.6 360.19C115.6 356.06 118.94 352.72 123.07 352.72C127.2 352.72 130.54 356.06 130.54 360.19C130.54 364.32 127.2 367.66 123.07 367.66Z" />
		<path id="Layer" class="shp10" d="M49.89 367.66C45.76 367.66 42.42 364.32 42.42 360.19C42.42 356.06 45.76 352.72 49.89 352.72C54.02 352.72 57.36 356.06 57.36 360.19C57.36 364.32 54.02 367.66 49.89 367.66Z" />
		<path id="Layer" class="shp10" d="M89.96 318.29L82.84 318.29C82.3 318.29 81.76 318.18 81.26 317.98C80.76 317.77 80.3 317.46 79.92 317.08C79.54 316.7 79.23 316.24 79.02 315.74C78.82 315.24 78.71 314.7 78.71 314.16L78.71 282.22L94.09 282.22L94.09 314.16C94.09 314.7 93.98 315.24 93.78 315.74C93.57 316.24 93.26 316.7 92.88 317.08C92.5 317.46 92.04 317.77 91.54 317.98C91.04 318.18 90.5 318.29 89.96 318.29L89.96 318.29Z" />
		<path id="Layer" class="shp14" d="M89.96 318.29L82.84 318.29C82.3 318.29 81.76 318.18 81.26 317.98C80.76 317.77 80.3 317.46 79.92 317.08C79.54 316.7 79.23 316.24 79.02 315.74C78.82 315.24 78.71 314.7 78.71 314.16L78.71 282.22L94.09 282.22L94.09 314.16C94.09 314.7 93.98 315.24 93.78 315.74C93.57 316.24 93.26 316.7 92.88 317.08C92.5 317.46 92.04 317.77 91.54 317.98C91.04 318.18 90.5 318.29 89.96 318.29L89.96 318.29Z" />
		<path id="Layer" class="shp10" d="M46.54 219.62C46.54 219.62 55.1 273 72 282.23L54.82 282.23C54.82 282.23 37.82 264.03 32.7 219.62L46.54 219.62Z" />
		<path id="Layer" class="shp13" d="M46.54 219.62C46.54 219.62 55.1 273 72 282.23L54.82 282.23C54.82 282.23 37.82 264.03 32.7 219.62L46.54 219.62Z" />
		<path id="Layer" class="shp6" d="M54 274.68L120.92 274.68C121.58 274.68 122.23 274.81 122.83 275.06C123.44 275.31 123.99 275.68 124.46 276.14C124.92 276.61 125.29 277.16 125.54 277.77C125.79 278.37 125.92 279.02 125.92 279.68L125.92 286.37L49 286.37L49 279.68C49 279.02 49.13 278.37 49.38 277.77C49.63 277.16 50 276.61 50.46 276.14C50.93 275.68 51.48 275.31 52.09 275.06C52.69 274.81 53.34 274.68 54 274.68Z" />
		<path id="Layer" class="shp10" d="M45.76 282.53C45.76 281.42 46.66 280.52 47.77 280.52L127.08 280.52C128.19 280.52 129.09 281.42 129.09 282.53L129.09 284.35C129.09 285.46 128.19 286.36 127.08 286.36L47.77 286.36C46.66 286.36 45.76 285.46 45.76 284.35L45.76 282.53Z" />
		<path id="Layer" class="shp11" d="M45.76 282.53C45.76 281.42 46.66 280.52 47.77 280.52L127.08 280.52C128.19 280.52 129.09 281.42 129.09 282.53L129.09 284.35C129.09 285.46 128.19 286.36 127.08 286.36L47.77 286.36C46.66 286.36 45.76 285.46 45.76 284.35L45.76 282.53Z" />
		<path id="Layer" class="shp6" d="M30.67 230.48L58.16 230.48C66.22 230.48 71.45 224.02 69.85 216.05L67.71 205.41C66.11 197.41 58.28 190.99 50.23 190.99L22.74 190.99C14.68 190.99 9.45 197.45 11.05 205.41L13.19 216.05C14.79 224 22.61 230.48 30.67 230.48Z" />
		<path id="Layer" class="shp15" d="M176.54 319.89L170.24 322.36L165.71 313.82L161.59 306.05L168.57 301.87L172.79 311.4L176.54 319.89L176.54 319.89Z" />
		<path id="Layer" class="shp8" d="M172.79 311.4L165.71 313.82L161.59 306.05L168.57 301.87L172.79 311.4L172.79 311.4Z" />
		<path id="Layer" class="shp10" d="M171.48 306.74L162.91 311.34C162.91 311.34 130.52 254.39 125.54 254.87C120.56 255.35 73.31 285.45 58.9 274.33C44.49 263.21 58.51 229.73 58.51 229.73C58.51 229.73 88.32 221.21 91.51 227.73C91.72 228.22 91.92 228.71 92.12 229.2C92.31 229.7 92.5 230.2 92.68 230.7C92.85 231.2 93.03 231.7 93.19 232.21C93.35 232.71 93.5 233.22 93.65 233.73C94.28 235.78 94.76 237.51 94.76 237.51L94.76 237.51C95.67 237.14 125.11 225.07 138.25 231.51C151.66 238.13 171.48 306.74 171.48 306.74Z" />
		<path id="Layer" class="shp16" d="M171.48 306.74L162.91 311.34C162.91 311.34 130.52 254.39 125.54 254.87C120.56 255.35 73.31 285.45 58.9 274.33C44.49 263.21 58.51 229.73 58.51 229.73C58.51 229.73 88.32 221.21 91.51 227.73C91.72 228.22 91.92 228.71 92.12 229.2C92.31 229.7 92.5 230.2 92.68 230.7C92.85 231.2 93.03 231.7 93.19 232.21C93.35 232.71 93.5 233.22 93.65 233.73C94.28 235.78 94.76 237.51 94.76 237.51L94.76 237.51C95.67 237.14 125.11 225.07 138.25 231.51C151.66 238.13 171.48 306.74 171.48 306.74Z" />
		<path id="Layer" class="shp15" d="M124.92 353.18L118.2 352.41L118.16 342.93L118.15 334.23L126.28 333.85L125.56 344.08L124.92 353.18L124.92 353.18Z" />
		<path id="Layer" class="shp8" d="M125.54 344.29L118.14 343.11L118.14 334.32L126.27 333.89L125.54 344.29L125.54 344.29Z" />
		<path id="Layer" class="shp6" d="M158.72 308.51L171.26 302.23L172.57 307.55L163.07 312.45L158.72 308.51L158.72 308.51Z" />
		<path id="Layer" class="shp10" d="M81.16 274.42C81.16 274.42 83.22 274.19 114.91 268.32C114.91 268.32 115.63 308.84 117.13 339.05L126.89 339.36C126.89 339.36 140.89 272.36 139.24 262.2C137.59 252.04 125.55 250.71 125.55 250.71C125.55 250.71 104.64 267 81.16 274.42Z" />
		<path id="Layer" class="shp17" d="M81.16 274.42C81.16 274.42 83.22 274.19 114.91 268.32C114.91 268.32 115.63 308.84 117.13 339.05L126.89 339.36C126.89 339.36 140.89 272.36 139.24 262.2C137.59 252.04 125.55 250.71 125.55 250.71C125.55 250.71 104.64 267 81.16 274.42Z" />
		<path id="Layer" class="shp18" d="M81.16 274.42C81.16 274.42 83.22 274.19 114.91 268.32C114.91 268.32 115.63 308.84 117.13 339.05L126.89 339.36C126.89 339.36 140.89 272.36 139.24 262.2C137.59 252.04 125.55 250.71 125.55 250.71C125.55 250.71 104.64 267 81.16 274.42Z" />
		<path id="Layer" class="shp6" d="M115.34 336.35L128.65 336.04L126.83 341.52L116.03 341.62L115.34 336.35L115.34 336.35Z" />
		<path id="Layer" class="shp18" d="M94.8 237.53L77.53 243.68C77.53 243.68 86.61 236.9 93.69 233.75C94.32 235.8 94.8 237.53 94.8 237.53Z" />
		<path id="Layer" class="shp10" d="M56.51 227.67L57.15 232.46L89.52 225.59L88.77 219.93L56.51 227.67L56.51 227.67Z" />
		<path id="Layer" class="shp8" d="M56.51 227.67L57.15 232.46L89.52 225.59L88.77 219.93L56.51 227.67L56.51 227.67Z" />
		<path id="Layer" class="shp10" d="M65.62 224.49L67.24 224.19L68.76 232.4L67.15 232.7L65.62 224.49Z" />
		<path id="Layer" class="shp12" d="M74.29 223.7L81.35 222.11L82.56 227.47L75.49 229.06L74.29 223.7Z" />
		<path id="Layer" class="shp10" d="M84.28 219.06L85.89 218.77L87.39 226.95L85.79 227.25L84.28 219.06Z" />
		<path id="Layer" class="shp16" d="M65.62 224.49L67.24 224.19L68.76 232.4L67.15 232.7L65.62 224.49Z" />
		<path id="Layer" class="shp16" d="M84.28 219.06L85.89 218.77L87.39 226.95L85.79 227.25L84.28 219.06Z" />
		<path id="Layer" class="shp10" d="M189.06 331.07C188.8 330.99 188.53 330.92 188.26 330.87C188 330.81 187.72 330.77 187.45 330.73C187.18 330.7 186.91 330.69 186.63 330.68C186.36 330.67 186.08 330.68 185.81 330.7L185.81 330.7C185.81 330.7 181.74 329 176.81 320.91L172.61 321.46C172.26 321.51 171.92 321.62 171.6 321.77C171.28 321.93 170.99 322.13 170.73 322.38C170.47 322.62 170.25 322.91 170.08 323.22C169.91 323.53 169.78 323.86 169.71 324.21C169.7 324.26 169.7 324.31 169.69 324.36C169.69 324.41 169.69 324.46 169.69 324.51C169.69 324.56 169.69 324.61 169.69 324.66C169.7 324.71 169.7 324.76 169.71 324.81C169.76 325.06 169.8 325.32 169.86 325.57C169.91 325.82 169.97 326.07 170.03 326.32C170.09 326.57 170.16 326.82 170.23 327.07C170.3 327.32 170.37 327.56 170.45 327.81C170.72 328.62 171 329.43 171.29 330.23C171.59 331.04 171.89 331.84 172.21 332.63C172.53 333.43 172.86 334.22 173.2 335C173.54 335.79 173.89 336.57 174.26 337.34L174.94 337.06L172.77 331C172.05 328.93 174.56 330.68 175.89 332.68C177.22 334.68 179.11 336.62 183.6 334.92C188.82 332.88 190.89 331.8 189.06 331.07Z" />
		<path id="Layer" class="shp15" d="M175.76 318.76C175.76 318.76 182.5 329 185.81 330.7C185.81 330.7 182.1 333.7 177.15 328.88C170.76 322.69 169.69 324.81 169.69 324.81C169.68 324.51 169.67 324.2 169.67 323.9C169.67 323.6 169.68 323.29 169.69 322.99C169.7 322.69 169.73 322.39 169.75 322.08C169.78 321.78 169.82 321.48 169.86 321.18C170.37 318.83 175.76 318.76 175.76 318.76Z" />
		<path id="Layer" class="shp10" d="M135 365.1C134.76 364.96 134.52 364.84 134.27 364.72C134.02 364.6 133.76 364.5 133.5 364.41C133.24 364.32 132.98 364.24 132.71 364.17C132.44 364.1 132.17 364.04 131.9 364L131.9 364C131.9 364 128.35 361.39 125.5 352.37L121.29 351.91C120.93 351.88 120.58 351.9 120.23 351.97C119.88 352.05 119.55 352.18 119.24 352.36C118.93 352.53 118.65 352.76 118.41 353.02C118.17 353.29 117.97 353.59 117.82 353.91C117.8 353.95 117.78 354 117.76 354.05C117.74 354.09 117.72 354.14 117.71 354.19C117.69 354.24 117.68 354.28 117.67 354.33C117.66 354.38 117.65 354.43 117.64 354.48C117.62 354.74 117.61 354.99 117.6 355.25C117.59 355.5 117.59 355.76 117.59 356.01C117.59 356.27 117.59 356.53 117.6 356.78C117.61 357.04 117.62 357.29 117.64 357.55C117.71 358.4 117.79 359.25 117.88 360.11C117.98 360.96 118.08 361.8 118.2 362.65C118.32 363.5 118.46 364.34 118.6 365.19C118.75 366.03 118.91 366.87 119.08 367.71L119.81 367.6L119.16 361.18C118.95 359 120.98 361.3 121.8 363.56C122.62 365.82 123.99 368.15 128.75 367.56C134.31 366.81 136.57 366.25 135 365.1Z" />
		<path id="Layer" class="shp15" d="M125 350C125 350 129.12 361.55 131.93 364C131.93 364 127.62 366 123.93 360.18C119.18 352.65 117.65 354.46 117.65 354.46C117.71 354.16 117.77 353.87 117.84 353.57C117.91 353.28 117.98 352.99 118.07 352.7C118.15 352.41 118.24 352.12 118.34 351.83C118.44 351.55 118.54 351.26 118.65 350.98C119.71 348.78 125 350 125 350Z" />
		<path id="Layer" class="shp15" d="M49.46 146L41 147.7C40.84 147.84 40.66 147.96 40.46 148.06C40.27 148.15 40.07 148.23 39.86 148.28C39.65 148.33 39.44 148.36 39.22 148.36C39 148.36 38.79 148.34 38.58 148.29C36.06 147.29 32.43 144.36 31.97 143.29C31.29 141.78 31.97 137.35 33.75 136.55C35.53 135.75 41.66 143.15 41.66 143.15L50.75 141.1L49.46 146Z" />
		<path id="Layer" class="shp6" d="M76.14 174.12C76.14 174.12 75.37 146.71 72.2 145.54C69.03 144.37 45.2 147.64 45.2 147.64L44.62 141.38C44.62 141.38 72.35 137.11 77.72 139.64C83.09 142.17 84.86 183.02 83.88 190.89L76.14 174.12Z" />
		<path id="Layer" class="shp11" d="M76.14 174.12C76.14 174.12 75.37 146.71 72.2 145.54C69.03 144.37 45.2 147.64 45.2 147.64L44.62 141.38C44.62 141.38 72.35 137.11 77.72 139.64C83.09 142.17 84.86 183.02 83.88 190.89L76.14 174.12Z" />
		<path id="Layer" class="shp6" d="M45.61 148.24L43.95 141.36L46.33 140.5L47.84 148.45L45.61 148.24L45.61 148.24Z" />
		<path id="Layer" class="shp19" d="M45.61 148.24L43.95 141.36L46.33 140.5L47.84 148.45L45.61 148.24L45.61 148.24Z" />
		<path id="Layer" class="shp6" d="M76 170.7C76 170.7 73.87 179.04 63.61 181.7C53.35 184.36 42 177.41 42 177.41L44.26 197.31L56.82 228.66L88.92 220.29C88.92 220.29 87 183.82 76 170.7Z" />
		<path id="Layer" class="shp19" d="M76 170.7C76 170.7 73.87 179.04 63.61 181.7C53.35 184.36 42 177.41 42 177.41L44.26 197.31L56.82 228.66L88.92 220.29C88.92 220.29 87 183.82 76 170.7Z" />
		<path id="Layer" class="shp20" d="M85.85 201.59C85.98 202.01 85.75 202.45 85.34 202.58L81.58 203.77C81.16 203.9 80.72 203.67 80.59 203.25L78.35 196.16C78.22 195.74 78.45 195.3 78.86 195.17L82.62 193.98C83.04 193.85 83.48 194.08 83.61 194.5L85.85 201.59Z" />
		<path id="Layer" class="shp8" d="M85.09 200.26L80.81 201.61L78.97 195.76L83.24 194.41L85.09 200.26Z" />
		<path id="Layer" class="shp10" d="M79.73 192.6L80.67 192.3L81.76 195.74L80.81 196.04L79.73 192.6Z" />
		<path id="Layer" class="shp10" d="M54.18 139.55C46.27 139.55 41.05 147.93 42.9 161.22C44.75 174.51 52.16 178.34 52.16 178.34L51.69 175.13C53.74 175.6 55.81 175.98 57.9 176.27C59.98 176.56 62.08 176.77 64.18 176.88C66.28 177 68.38 177.03 70.49 176.97C72.59 176.91 74.69 176.76 76.78 176.53C78.87 176.3 72.96 165.69 74.2 154.62C74.2 154.62 76.71 139.53 54.18 139.55Z" />
		<path id="Layer" class="shp8" d="M69.89 179L73.12 191L67.44 186.67C67.44 186.67 72.97 199.31 74.44 206.67C74.44 206.67 69.66 194.14 65.54 187.27L63.13 194.15L53.44 184.28C53.44 184.28 62 177.72 69.89 179Z" />
		<path id="Layer" class="shp15" d="M65.17 182.87L55.31 183.17C59.68 177.58 51.78 167.84 51.78 167.84L61.52 169.95C63.84 179.59 67.85 179.88 67.85 179.88L65.17 182.87Z" />
		<path id="Layer" class="shp8" d="M64.24 176.87C63.31 176.79 62.39 176.63 61.49 176.38C60.59 176.12 59.72 175.79 58.88 175.37C58.05 174.96 57.25 174.46 56.51 173.9C55.77 173.33 55.08 172.7 54.46 172C54.27 171.64 54.06 171.28 53.85 170.93C53.65 170.58 53.43 170.23 53.21 169.88C52.98 169.54 52.75 169.2 52.51 168.87C52.28 168.53 52.03 168.2 51.78 167.88L61.52 170C61.65 170.61 61.8 171.2 61.98 171.8C62.16 172.39 62.36 172.97 62.59 173.55C62.82 174.12 63.07 174.69 63.35 175.24C63.62 175.8 63.92 176.34 64.24 176.87Z" />
		<path id="Layer" class="shp15" d="M61.51 143.62C70 144.33 72.36 149.1 72.25 157.91C72.12 168.91 69.04 176.48 58.62 173.26C44.46 168.89 47.4 142.44 61.51 143.62Z" />
		<path id="Layer" class="shp21" d="M66.8 157C66.94 157.33 67.1 157.66 67.26 157.98C67.42 158.3 67.6 158.62 67.78 158.93C67.96 159.24 68.15 159.55 68.35 159.85C68.55 160.15 68.76 160.44 68.98 160.73C68.84 160.89 68.68 161.04 68.5 161.16C68.32 161.28 68.13 161.37 67.93 161.44C67.72 161.51 67.51 161.55 67.3 161.56C67.08 161.57 66.87 161.55 66.66 161.5L66.8 157Z" />
		<path id="Layer" class="shp10" d="M61.05 155.58L62.89 154.98C62.89 154.98 61.91 156.44 61.05 155.58Z" />
		<path id="Layer" class="shp10" d="M61.69 155.37C61.52 155.29 61.34 155.23 61.15 155.22C60.96 155.2 60.77 155.21 60.59 155.26C60.41 155.31 60.23 155.39 60.08 155.5C59.93 155.62 59.79 155.75 59.69 155.91C59.85 155.84 60.01 155.78 60.18 155.75C60.35 155.71 60.52 155.69 60.69 155.69C60.86 155.69 61.03 155.71 61.2 155.75C61.37 155.78 61.53 155.84 61.69 155.91L61.69 155.37Z" />
		<path id="Layer" class="shp10" d="M58.27 151.32C58.25 151.32 58.22 151.32 58.2 151.31C58.18 151.31 58.16 151.3 58.13 151.29C58.11 151.28 58.09 151.27 58.07 151.26C58.05 151.24 58.04 151.23 58.02 151.21C57.99 151.18 57.96 151.14 57.94 151.09C57.92 151.05 57.91 151 57.91 150.95C57.91 150.91 57.92 150.86 57.94 150.82C57.96 150.77 57.99 150.73 58.02 150.7C58.3 150.46 58.6 150.25 58.93 150.07C59.26 149.9 59.6 149.77 59.96 149.67C60.31 149.58 60.68 149.53 61.05 149.52C61.42 149.51 61.79 149.54 62.15 149.62C62.24 149.64 62.32 149.7 62.38 149.78C62.43 149.86 62.45 149.96 62.43 150.05C62.41 150.14 62.35 150.22 62.27 150.28C62.19 150.33 62.09 150.35 62 150.33C61.7 150.27 61.39 150.24 61.08 150.25C60.78 150.25 60.47 150.3 60.17 150.37C59.87 150.45 59.58 150.55 59.31 150.69C59.03 150.83 58.78 151 58.54 151.2C58.52 151.22 58.5 151.24 58.48 151.25C58.46 151.27 58.44 151.28 58.42 151.29C58.4 151.3 58.37 151.31 58.35 151.31C58.32 151.32 58.3 151.32 58.27 151.32Z" />
		<path id="Layer" class="shp10" d="M71.59 151.47C71.57 151.47 71.55 151.47 71.53 151.47C71.51 151.46 71.49 151.46 71.47 151.45C71.46 151.45 71.44 151.44 71.42 151.43C71.4 151.42 71.39 151.41 71.37 151.4C71.17 151.22 70.95 151.06 70.72 150.92C70.48 150.79 70.23 150.68 69.97 150.6C69.72 150.52 69.45 150.47 69.18 150.45C68.91 150.43 68.64 150.44 68.37 150.48C68.28 150.5 68.18 150.49 68.1 150.44C68.01 150.39 67.95 150.32 67.93 150.22C67.9 150.13 67.92 150.03 67.96 149.95C68.01 149.87 68.09 149.81 68.18 149.78C68.5 149.72 68.83 149.7 69.16 149.72C69.49 149.74 69.81 149.79 70.13 149.88C70.44 149.97 70.75 150.1 71.03 150.26C71.32 150.42 71.59 150.61 71.83 150.83C71.87 150.86 71.9 150.9 71.92 150.94C71.94 150.98 71.96 151.03 71.96 151.07C71.97 151.12 71.96 151.17 71.95 151.21C71.94 151.26 71.92 151.3 71.89 151.34C71.87 151.36 71.85 151.38 71.83 151.4C71.81 151.42 71.78 151.43 71.76 151.44C71.73 151.45 71.7 151.46 71.67 151.47C71.65 151.47 71.62 151.47 71.59 151.47L71.59 151.47Z" />
		<path id="Layer" class="shp10" d="M51 157.16C51 157.16 55.55 150.52 55.4 145.08C55.4 145.08 72.81 139.6 72.22 156.76C72.22 156.76 75.12 141.76 60.55 140.17C45.98 138.58 44.29 160 51.3 167C51.3 167 48.21 161.32 51 157.16Z" />
		<path id="Layer" class="shp15" d="M52.27 159.07C52.27 158.58 52.17 158.09 51.99 157.64C51.8 157.19 51.52 156.78 51.18 156.43C50.83 156.08 50.42 155.81 49.97 155.62C49.52 155.43 49.03 155.33 48.54 155.33C45.88 155.4 44.18 160.7 50.62 162.55C51.54 162.81 52.15 161.94 52.27 159.07Z" />
		<path id="Layer" class="shp10" d="M66.73 164C66.57 164.21 66.42 164.42 66.28 164.64C66.13 164.85 65.98 165.07 65.84 165.29C65.71 165.51 65.57 165.73 65.44 165.96C65.31 166.18 65.18 166.41 65.06 166.64C64.89 166.58 64.71 166.53 64.54 166.46C62.19 165.63 61.37 164.46 61.18 163.46C61.16 163.33 61.14 163.21 61.14 163.08C61.13 162.95 61.13 162.82 61.14 162.69C61.15 162.57 61.17 162.44 61.19 162.31C61.22 162.19 61.25 162.06 61.29 161.94C61.31 161.87 61.33 161.8 61.36 161.73C61.38 161.66 61.41 161.59 61.44 161.53C61.47 161.46 61.51 161.4 61.54 161.33C61.57 161.27 61.61 161.2 61.65 161.14C61.95 161.43 62.27 161.7 62.61 161.96C62.94 162.21 63.29 162.45 63.65 162.66C64.01 162.88 64.38 163.08 64.76 163.25C65.14 163.43 65.53 163.59 65.93 163.72C66.41 163.9 66.73 164 66.73 164Z" />
		<path id="Layer" class="shp12" d="M65.93 163.7L65.42 164.47C63.2 163.68 61.75 162.83 61.29 161.92C61.31 161.85 61.33 161.78 61.36 161.71C61.38 161.64 61.41 161.57 61.44 161.51C61.47 161.44 61.51 161.38 61.54 161.31C61.57 161.25 61.61 161.18 61.65 161.12C61.95 161.41 62.27 161.68 62.61 161.94C62.94 162.19 63.29 162.43 63.65 162.64C64.01 162.86 64.38 163.06 64.76 163.23C65.14 163.41 65.53 163.57 65.93 163.7Z" />
		<path id="Layer" class="shp21" d="M64.54 166.46C62.19 165.63 61.37 164.46 61.18 163.46C61.4 163.54 61.62 163.63 61.83 163.73C62.05 163.84 62.26 163.95 62.46 164.07C62.66 164.19 62.86 164.31 63.05 164.45C63.25 164.59 63.43 164.74 63.61 164.89C63.73 164.99 63.83 165.1 63.93 165.22C64.03 165.34 64.12 165.47 64.2 165.6C64.28 165.74 64.34 165.87 64.4 166.02C64.46 166.16 64.51 166.31 64.54 166.46Z" />
		<path id="Layer" class="shp10" d="M61.28 144.25C61.28 144.25 56.69 157.94 47.91 157C39.13 156.06 54.18 139.52 54.18 139.52C54.18 139.52 68.99 135.29 75.44 143.52C81.89 151.75 72.25 156.74 72.25 156.74C72.25 156.74 73.69 146 61.28 144.25Z" />
		<path id="Layer" class="shp10" d="M54.28 155.9C54.25 155.9 54.23 155.89 54.21 155.89C54.18 155.88 54.16 155.87 54.14 155.85C54.12 155.84 54.1 155.82 54.08 155.8C54.06 155.78 54.05 155.76 54.04 155.74C54.03 155.71 54.02 155.67 54.02 155.64C54.03 155.61 54.03 155.58 54.05 155.54C54.06 155.51 54.08 155.49 54.11 155.46C54.13 155.44 54.16 155.42 54.19 155.41C61.19 152.74 61.03 143.35 61.03 143.25C61.03 143.22 61.03 143.18 61.04 143.15C61.05 143.12 61.07 143.09 61.09 143.07C61.12 143.05 61.14 143.03 61.17 143.02C61.2 143 61.24 143 61.27 143C61.3 143 61.33 143.01 61.36 143.02C61.39 143.03 61.42 143.05 61.44 143.07C61.47 143.09 61.49 143.12 61.5 143.15C61.52 143.18 61.53 143.21 61.53 143.24C61.53 143.34 61.69 153.08 54.37 155.88L54.28 155.9Z" />
		<path id="Layer" class="shp10" d="M69.67 156.41L71.51 155.82C71.51 155.82 70.52 157.27 69.67 156.41Z" />
		<path id="Layer" class="shp10" d="M70.31 156.2C70.14 156.12 69.96 156.06 69.77 156.05C69.58 156.03 69.39 156.04 69.21 156.09C69.02 156.14 68.85 156.23 68.7 156.34C68.54 156.45 68.41 156.59 68.31 156.75C68.46 156.67 68.63 156.61 68.79 156.57C68.96 156.53 69.13 156.51 69.3 156.5C69.48 156.5 69.65 156.51 69.82 156.54C69.99 156.57 70.15 156.62 70.31 156.69L70.31 156.2Z" />
		<path id="Layer" class="shp6" d="M56.7 179.13L64.13 182.91L64.01 190.44L53.39 184.25L56.7 179.13L56.7 179.13Z" />
		<path id="Layer" class="shp6" d="M65.26 177.71L65.7 182.28L70.55 187.41L69.89 178.97L65.26 177.71L65.26 177.71Z" />
		<path id="Layer" class="shp15" d="M30.93 126L27.83 118C27.86 117.79 27.86 117.57 27.84 117.36C27.82 117.14 27.77 116.93 27.7 116.73C27.63 116.53 27.54 116.33 27.42 116.15C27.31 115.97 27.17 115.8 27.02 115.65C24.86 114.04 20.4 112.58 19.28 112.75C17.65 112.99 14.28 115.94 14.57 117.87C14.86 119.8 24.38 120.99 24.38 120.99L27.54 129.76L30.93 126Z" />
		<path id="Layer" class="shp6" d="M44.28 197.31C44.28 197.31 50.28 192.54 47.89 182L41.44 152.84L30.36 122.72L24.94 125.46C24.94 125.46 34.04 154.89 34.88 156.88C35.31 157.88 37.02 173.15 39.35 183.38C41.49 192.8 44.28 197.31 44.28 197.31Z" />
		<path id="Layer" class="shp11" d="M44.28 197.31C44.28 197.31 50.28 192.54 47.89 182L41.44 152.84L30.36 122.72L24.94 125.46C24.94 125.46 34.04 154.89 34.88 156.88C35.31 157.88 37.02 173.15 39.35 183.38C41.49 192.8 44.28 197.31 44.28 197.31Z" />
		<path id="Layer" class="shp6" d="M23.99 124.6L30.32 121.43L31.7 123.54L24.3 126.82L23.99 124.6L23.99 124.6Z" />
		<path id="Layer" class="shp19" d="M23.99 124.6L30.32 121.43L31.7 123.54L24.3 126.82L23.99 124.6L23.99 124.6Z" />
		<path id="Layer" class="shp11" d="M56.7 179.13L64.13 182.91L64.01 190.44L53.39 184.25L56.7 179.13L56.7 179.13Z" />
		<path id="Layer" class="shp11" d="M65.26 177.71L65.7 182.28L70.55 187.41L69.89 178.97L65.26 177.71L65.26 177.71Z" />
	</g>
	<g id="freepik--Desk--inject-2">
		<path id="Layer" class="shp12" d="M246.3 163.41L276.26 163.41L276.26 186.69L246.3 186.69L246.3 163.41Z" />
		<path id="Layer" class="shp9" d="M268.58 163.41L276.26 163.41L276.26 186.69L268.58 186.69L268.58 163.41Z" />
		<path id="Layer" class="shp6" d="M244.58 207.25L278.45 207.25L278.45 165L267.54 165L244.58 175.99L244.58 207.25L244.58 207.25Z" />
		<path id="Layer" class="shp8" d="M267.54 165L278.45 165L278.45 207.25L267.54 207.25L267.54 165Z" />
		<path id="Layer" class="shp19" d="M248.07 184.32L263.93 184.32L263.93 191.92L248.07 191.92L248.07 184.32Z" />
		<path id="Layer" class="shp19" d="M248.07 194.46L263.93 194.46L263.93 195.55L248.07 195.55L248.07 194.46Z" />
		<path id="Layer" class="shp19" d="M268.58 197.65L277.39 197.65L277.39 204.1L268.58 204.1L268.58 197.65Z" />
		<path id="Layer" class="shp12" d="M233.57 162.14L263.53 162.14L263.53 186.69L233.57 186.69L233.57 162.14Z" />
		<path id="Layer" class="shp9" d="M255.85 162.14L263.53 162.14L263.53 186.69L255.85 186.69L255.85 162.14Z" />
		<path id="Layer" class="shp6" d="M231.85 207.25L265.72 207.25L265.72 165L254.81 165L231.85 175.99L231.85 207.25L231.85 207.25Z" />
		<path id="Layer" class="shp8" d="M254.81 165L265.72 165L265.72 207.25L254.81 207.25L254.81 165Z" />
		<path id="Layer" class="shp19" d="M235.34 184.32L251.2 184.32L251.2 191.92L235.34 191.92L235.34 184.32Z" />
		<path id="Layer" class="shp19" d="M235.34 194.46L251.2 194.46L251.2 195.55L235.34 195.55L235.34 194.46Z" />
		<path id="Layer" class="shp19" d="M255.85 197.65L264.66 197.65L264.66 204.1L255.85 204.1L255.85 197.65Z" />
		<path id="Layer" class="shp10" d="M210.81 367.66L216.94 367.66L227.94 214.41L219.81 214.41L210.81 367.66L210.81 367.66Z" />
		<path id="Layer" class="shp13" d="M210.81 367.66L216.94 367.66L227.4 222.02L227.94 214.66L219.81 214.66L219.38 222.02L210.81 367.66L210.81 367.66Z" />
		<path id="Layer" class="shp8" d="M219.38 221.66L227.4 221.66L227.94 214.66L219.81 214.66L219.38 221.66L219.38 221.66Z" />
		<path id="Layer" class="shp10" d="M165.85 367.66L171.98 367.66L172.98 214.41L164.85 214.41L165.85 367.66L165.85 367.66Z" />
		<path id="Layer" class="shp13" d="M164.84 214.66L165.01 239.38L165.84 367.66L171.97 367.66L172.81 239.38L172.97 214.66L164.84 214.66L164.84 214.66Z" />
		<path id="Layer" class="shp8" d="M164.84 214.66L165.01 239.66L172.81 239.66L172.97 214.66L164.84 214.66L164.84 214.66Z" />
		<path id="Layer" class="shp10" d="M100.81 367.66L106.94 367.66L117.94 214.41L109.81 214.41L100.81 367.66L100.81 367.66Z" />
		<path id="Layer" class="shp13" d="M100.81 367.66L106.94 367.66L117.41 222.02L117.94 214.66L109.81 214.66L109.38 222.02L100.81 367.66L100.81 367.66Z" />
		<path id="Layer" class="shp8" d="M109.38 221.66L117.41 221.66L117.94 214.66L109.81 214.66L109.38 221.66L109.38 221.66Z" />
		<path id="Layer" class="shp10" d="M280.89 367.66L287.02 367.66L278.01 214.41L269.88 214.41L280.89 367.66L280.89 367.66Z" />
		<path id="Layer" class="shp13" d="M269.88 214.66L270.43 222.02L280.89 367.66L287.01 367.66L278.45 222.02L278.01 214.66L269.88 214.66L269.88 214.66Z" />
		<path id="Layer" class="shp8" d="M278.01 214.66L269.88 214.66L270.43 221.66L278.45 221.66L278.01 214.66L278.01 214.66Z" />
		<path id="Layer" class="shp6" d="M282.3 218.25L105.54 218.25C105.26 218.25 104.98 218.19 104.71 218.09C104.45 217.98 104.21 217.82 104.01 217.62C103.81 217.42 103.65 217.18 103.54 216.92C103.44 216.65 103.38 216.37 103.38 216.09L103.38 210.58L284.46 210.58L284.46 216.09C284.46 216.37 284.4 216.65 284.3 216.92C284.19 217.18 284.03 217.42 283.83 217.62C283.63 217.82 283.39 217.98 283.13 218.09C282.86 218.19 282.58 218.25 282.3 218.25L282.3 218.25Z" />
		<path id="Layer" class="shp17" d="M282.3 218.25L105.54 218.25C105.26 218.25 104.98 218.19 104.71 218.09C104.45 217.98 104.21 217.82 104.01 217.62C103.81 217.42 103.65 217.18 103.54 216.92C103.44 216.65 103.38 216.37 103.38 216.09L103.38 210.58L284.46 210.58L284.46 216.09C284.46 216.37 284.4 216.65 284.3 216.92C284.19 217.18 284.03 217.42 283.83 217.62C283.63 217.82 283.39 217.98 283.13 218.09C282.86 218.19 282.58 218.25 282.3 218.25L282.3 218.25Z" />
		<path id="Layer" class="shp8" d="M284.46 214.41L103.38 214.41L103.38 210.57L284.46 210.57L284.46 214.41Z" />
		<path id="Layer" class="shp6" d="M99.58 211.57L288.25 211.57C288.53 211.57 288.82 211.52 289.08 211.41C289.34 211.3 289.58 211.14 289.78 210.94C289.98 210.74 290.14 210.5 290.25 210.24C290.36 209.98 290.41 209.69 290.41 209.41L290.41 209.41C290.41 209.13 290.35 208.85 290.25 208.58C290.14 208.32 289.98 208.08 289.78 207.88C289.58 207.68 289.34 207.52 289.08 207.41C288.81 207.31 288.53 207.25 288.25 207.25L99.58 207.25C99.3 207.25 99.01 207.31 98.75 207.41C98.49 207.52 98.25 207.68 98.05 207.88C97.85 208.08 97.69 208.32 97.58 208.58C97.47 208.84 97.41 209.13 97.41 209.41L97.41 209.41C97.41 209.69 97.47 209.98 97.58 210.24C97.68 210.5 97.84 210.74 98.05 210.94C98.25 211.14 98.49 211.3 98.75 211.41C99.01 211.52 99.3 211.57 99.58 211.57L99.58 211.57Z" />
		<path id="Layer" class="shp17" d="M99.58 211.57L288.25 211.57C288.53 211.57 288.82 211.52 289.08 211.41C289.34 211.3 289.58 211.14 289.78 210.94C289.98 210.74 290.14 210.5 290.25 210.24C290.36 209.98 290.41 209.69 290.41 209.41L290.41 209.41C290.41 209.13 290.35 208.85 290.25 208.58C290.14 208.32 289.98 208.08 289.78 207.88C289.58 207.68 289.34 207.52 289.08 207.41C288.81 207.31 288.53 207.25 288.25 207.25L99.58 207.25C99.3 207.25 99.01 207.31 98.75 207.41C98.49 207.52 98.25 207.68 98.05 207.88C97.85 208.08 97.69 208.32 97.58 208.58C97.47 208.84 97.41 209.13 97.41 209.41L97.41 209.41C97.41 209.69 97.47 209.98 97.58 210.24C97.68 210.5 97.84 210.74 98.05 210.94C98.25 211.14 98.49 211.3 98.75 211.41C99.01 211.52 99.3 211.57 99.58 211.57L99.58 211.57Z" />
		<path id="Layer" class="shp6" d="M247.71 207.23L247.71 203.85L249.98 203.85L247.71 202.53L249.41 202.53L247.14 201.05L244.99 201.05L244.99 199.35L247.49 199.35L244.99 198.36L244.99 194.67L247.49 194.67L247.49 192.26L249.98 192.26L247.49 191.42L247.49 189.7L249.27 189.7L247.81 188.25L246.55 186.98L207.91 186.98L207.91 188.71L205.36 188.71L208.2 189.99L208.2 191.42L202.99 191.42L202.99 194.08L200.68 194.08L202.99 195.24L202.99 198.21L204.63 198.21L204.63 199.63L207.91 199.63L207.91 203.85L206.07 203.85L207.58 205.36L207.58 207.25L247.71 207.23L247.71 207.23Z" />
		<path id="Layer" class="shp19" d="M247.71 207.23L247.71 203.85L249.98 203.85L247.71 202.53L249.41 202.53L247.14 201.05L244.99 201.05L244.99 199.35L247.49 199.35L244.99 198.36L244.99 194.67L247.49 194.67L247.49 192.26L249.98 192.26L247.49 191.42L247.49 189.7L249.27 189.7L247.81 188.25L246.55 186.98L207.91 186.98L207.91 188.71L205.36 188.71L208.2 189.99L208.2 191.42L202.99 191.42L202.99 194.08L200.68 194.08L202.99 195.24L202.99 198.21L204.63 198.21L204.63 199.63L207.91 199.63L207.91 203.85L206.07 203.85L207.58 205.36L207.58 207.25L247.71 207.23L247.71 207.23Z" />
		<path id="Layer" class="shp9" d="M247.71 207.23L247.71 203.85L249.98 203.85L247.71 202.53L249.41 202.53L247.14 201.05L244.99 201.05L244.99 199.35L247.49 199.35L244.99 198.36L244.99 194.67L247.49 194.67L247.49 192.26L249.98 192.26L247.49 191.42L247.49 189.7L249.27 189.7L247.81 188.25L246.55 186.98L226.2 186.98L226.2 188.71L223.65 188.71L226.48 189.99L226.48 191.42L221.27 191.42L221.27 194.08L218.96 194.08L221.27 195.24L221.27 198.21L222.91 198.21L222.91 199.63L226.2 199.63L226.2 203.85L224.36 203.85L225.86 205.36L225.86 207.25L247.71 207.23L247.71 207.23Z" />
		<path id="Layer" class="shp9" d="M208.2 191.42L226.48 191.42L208.2 190.76L208.2 191.42L208.2 191.42Z" />
		<path id="Layer" class="shp9" d="M207.91 199.63L226.2 199.63L226.28 200.91L207.91 199.63L207.91 199.63Z" />
		<path id="Layer" class="shp9" d="M204.63 198.21L222.91 198.21L204.63 198.85L204.63 198.21L204.63 198.21Z" />
		<path id="Layer" class="shp9" d="M207.91 203.85L226.2 203.85L207.91 203.18L207.91 203.85L207.91 203.85Z" />
		<path id="Layer" class="shp9" d="M207.58 205.36L225.86 205.36L225.86 206.06L207.58 205.36L207.58 205.36Z" />
		<path id="Layer" class="shp9" d="M202.99 194.08L221.27 194.08L202.99 193.5L202.99 194.08L202.99 194.08Z" />
		<path id="Layer" class="shp9" d="M207.91 188.71L226.2 188.71L207.91 188.07L207.91 188.71L207.91 188.71Z" />
		<path id="Layer" class="shp9" d="M247.49 189.7L228.94 189.7L247.49 190.27L247.49 189.7L247.49 189.7Z" />
		<path id="Layer" class="shp9" d="M226.48 191.42L247.49 191.42L228.44 192.04L226.48 191.42L226.48 191.42Z" />
		<path id="Layer" class="shp9" d="M221.27 194.08L247.49 194.67L247.49 194.08L221.27 194.08L221.27 194.08Z" />
		<path id="Layer" class="shp9" d="M221.27 195.24L234.24 195.24L221.27 195.87L221.27 195.24L221.27 195.24Z" />
		<path id="Layer" class="shp9" d="M244.99 198.36L226.2 198.21L244.99 197.79L244.99 198.36L244.99 198.36Z" />
		<path id="Layer" class="shp9" d="M244.99 199.35L225.86 199.35L244.99 199.99L244.99 199.35L244.99 199.35Z" />
		<path id="Layer" class="shp9" d="M247.71 202.53L226.48 202.53L226.48 203.18L247.71 202.53L247.71 202.53Z" />
		<path id="Layer" class="shp9" d="M247.71 203.85L232.33 203.85L247.71 204.28L247.71 203.85L247.71 203.85Z" />
		<path id="Layer" class="shp10" d="M198.51 202.87L198.51 206.08C198.51 206.9 197.51 207.24 196.72 207.24L132.6 207.24C131.78 207.24 130.79 206.9 130.79 206.08L130.79 202.87L198.51 202.87Z" />
		<path id="Layer" class="shp17" d="M198.51 202.87L198.51 206.08C198.51 206.9 197.51 207.24 196.72 207.24L132.6 207.24C131.78 207.24 130.79 206.9 130.79 206.08L130.79 202.87L198.51 202.87Z" />
		<path id="Layer" class="shp8" d="M198.51 202.87L198.51 206.08C198.51 206.9 197.51 207.24 196.72 207.24L154.43 207.24C153.61 207.24 152.63 206.9 152.63 206.08L152.63 202.87L198.51 202.87Z" />
		<path id="Layer" class="shp10" d="M209.24 169.55L201.6 204.18C201.53 204.46 201.42 204.73 201.27 204.97C201.12 205.21 200.93 205.43 200.7 205.61C200.48 205.79 200.23 205.93 199.96 206.03C199.69 206.12 199.41 206.18 199.12 206.18L157.43 206.18C157.17 206.17 156.92 206.11 156.69 205.99C156.46 205.87 156.26 205.7 156.11 205.49C155.95 205.27 155.85 205.03 155.81 204.78C155.77 204.52 155.78 204.26 155.86 204.01L163.48 169.65C163.56 169.39 163.68 169.14 163.84 168.92C164 168.71 164.2 168.51 164.42 168.36C164.64 168.21 164.89 168.09 165.15 168.02C165.42 167.95 165.69 167.93 165.96 167.95L207.66 167.95C208.78 167.91 209.48 168.42 209.24 169.55Z" />
		<path id="Layer" class="shp17" d="M209.24 169.55L201.6 204.18C201.53 204.46 201.42 204.73 201.27 204.97C201.12 205.21 200.93 205.43 200.7 205.61C200.48 205.79 200.23 205.93 199.96 206.03C199.69 206.12 199.41 206.18 199.12 206.18L158.84 206.18C158.58 206.17 158.33 206.11 158.1 205.99C157.87 205.87 157.67 205.7 157.52 205.49C157.36 205.27 157.26 205.03 157.22 204.78C157.18 204.52 157.19 204.26 157.27 204.01L164.9 169.65C164.98 169.39 165.1 169.14 165.26 168.92C165.42 168.7 165.61 168.51 165.84 168.36C166.06 168.21 166.31 168.09 166.57 168.02C166.84 167.95 167.11 167.93 167.38 167.95L207.66 167.95C208.78 167.91 209.48 168.42 209.24 169.55Z" />
		<path id="Layer" class="shp8" d="M188.68 187.15L188.68 187.15C188.68 190.15 185.5 192.52 183.17 192.52C180.84 192.52 179.46 190.11 180.17 187.15C180.88 184.19 183.17 181.88 185.43 181.79C184.77 184.79 186.19 187.15 188.51 187.15L188.68 187.15Z" />
	</g>
</svg>